<?xml version="1.0" encoding="utf-8"?>
<!-- Generator: Adobe Illustrator 22.0.1, SVG Export Plug-In . SVG Version: 6.00 Build 0)  -->
<svg version="1.1" xmlns="http://www.w3.org/2000/svg" xmlns:xlink="http://www.w3.org/1999/xlink" x="0px" y="0px"
	 viewBox="0 0 2272 1872" style="enable-background:new 0 0 2272 1872;" xml:space="preserve">
<style type="text/css">
	.st0{clip-path:url(#SVGID_2_);}
	.st1{fill:#AEDDFA;}
	.st2{clip-path:url(#SVGID_2_);fill:#82965C;}
	.st3{fill:#F4A05B;}
	.st4{fill:#525938;}
	.st5{fill:#82965C;}
	.st6{fill:#9BAF71;}
	.st7{fill:#707F4E;}
	.st8{fill:#996855;}
	.st9{fill:#C47B65;}
	.st10{fill:#748451;}
	.st11{fill:#5C6640;}
	.st12{clip-path:url(#SVGID_2_);fill:#D86348;}
	.st13{fill:#2C3E50;}
	.st14{fill:#D14039;}
	.st15{fill:#E74C3C;}
	.st16{fill:#F4564E;}
	.st17{fill:#B53030;}
	.st18{fill:#FFC39A;}
	.st19{fill:#3498DB;}
	.st20{fill:#FFF799;}
	.st21{fill:#C9BC5D;}
	.st22{fill:#1D80B7;}
	.st23{fill:#1C749B;}
	.st24{fill:#F48E69;}
	.st25{fill:#371B13;}
	.st26{fill:#4C241B;}
	.st27{fill:#C84955;}
	.st28{fill:#EA546A;}
	.st29{fill:#FFFFFF;}
	.st30{fill:#3C576D;}
	.st31{fill:#D86348;}
	.st32{fill:#EF7657;}
	.st33{fill:#CE5F49;}
	.st34{fill:#5EFFDA;}
	.st35{fill:#4EEAC1;}
	.st36{fill:#A4FFE7;}
	.st37{fill:#FFB07B;}
	.st38{fill:#FFCE78;}
	.st39{fill:#DBA752;}
	.st40{clip-path:url(#SVGID_2_);fill:#FFB883;}
	.st41{clip-path:url(#SVGID_2_);fill:#E59151;}
	.st42{fill:#62844E;}
	.st43{fill:#4B5666;}
	.st44{fill:#5E6B82;}
	.st45{fill:#789B65;}
	.st46{fill:#B76448;}
	.st47{fill:#934732;}
</style>
<g id="vv">
	<g id="Layer_1_1_">
	</g>
	<g id="Layer_2">
	</g>
</g>
<g id="Layer_2_1_">
	<g>
		<defs>
			<rect id="SVGID_1_" width="2272" height="1872"/>
		</defs>
		<clipPath id="SVGID_2_">
			<use xlink:href="#SVGID_1_"  style="overflow:visible;"/>
		</clipPath>
		<g class="st0">
			<rect class="st1" width="2272" height="1872"/>
		</g>
		<path class="st2" d="M2190.4,1146.6c-0.6,2.5-1.1,5.1-2.9,6.8c-3.3,3-8.6,1.1-12.6-1c-10.4-5.6-20.7-11.8-32.4-13.6
			c-11.6-1.8-25.1,2.3-30.5,12.7c-2.7-14.5,0.8-35.4,4.7-49.6c-15.2-10.5-31.4-19.5-48.3-26.9c-5.7-2.5-11.8-4.9-18-4.6
			c-14.9,0.8-24.3,15.8-31.2,29c-20.6-23.7-46.4-49.5-77.6-46.1c-11.3,1.2-40.8,9.8-41.6,21.1c-14.7-23.2-37.9-49.7-64.1-41.5
			c-15.2,4.8-24.3,20-32,34c-5-28.2-44.8-38.1-69.1-23c-24.3,15.1-34.9,45-39.3,73.3c-17.3-6.1-34.9-12.2-53.2-12.4
			s-37.7,6.9-47.8,22.1c-13.3,20.2-6.9,47.2-12.5,70.7c-13.7-6-29.1-10.4-43.5-6.6c-14.4,3.9-43.3,15.9-39.9,30.5
			c-4-23.9-27.2-42.9-51.4-42.3c-5.9,0.2-13.2,0.7-16.2-4.4c-1.4-2.4-1.3-5.4-1.1-8.3c0.6-13.4-0.2-27.4-6.8-39
			c-6.6-11.6-38.8-23-51.7-19.5c0.3-5.2-4.3-9.1-8.6-12.1c-17.4-11.9-37.4-21.8-58.4-21c-21.1,0.7-42.7,14.9-46.2,35.7
			c-29.9-27.2-85.6-14.6-120.7,5.5c-17-25.5-50.4-38.8-80.3-32.1c-29.9,6.7-54.4,33-58.9,63.3c-27.4-24.7-69.8-19.1-105.7-10.8
			c-5.2,1.2-10.8,2.7-14.4,6.7c-3.6,4-3.2,43.2,1.7,45.6c-27.8-20-66.2-10.2-98.8,0.3c-10.9,3.5-21.6,31.5-18.6,42.6
			c-14.9-8-33.4-10.8-48.8-3.9s-39.2,28.4-34.6,44.6c-19.4-12.4-47.1-9.9-64,5.9c0.2-21.3,5.2-47.6,22-60.6
			c-13.3-26.4-51.1-29.4-75.2-12.3c-6.3-15.6-18.1-30.2-34.4-34.5s-43.9-10-46.6,6.6c-4.5-15.8-9.7-32.6-22.6-42.7
			c-12.9-10.1-36.2-14.3-41.8,1.1c-10.7-14.6-28.8-23.5-46.9-23c-18.1,0.5-28.4,8-38.3,23.2c-26.7-12.8-61.6-20-83.4,0
			c-13.4,12.3-17.7,31.7-17.7,49.9c0.1,18.2,3.8,36.2,3.4,54.4c-11.1-8.2-22.8-15.7-35-22.3c-13.8-7.5-31.5-13.6-44.2-4.5
			c-6.2,4.5-9.8,11.9-12.2,19.2c-3.8,11.3-0.3,21-0.3,33c-9.7-6.2-19.9-12.7-31.4-13.3c-11.5-0.6-24.3,6.9-25.2,18.4
			c-7-12.4-23.5-18.5-36.8-13.7c-13.4,4.8-22.2,20-19.6,34c-8.5-5.7-19.1-6.6-29.1-4.1V1872h2272v-780.4c-15,1.2-29.9,4.3-43.4,10.8
			C2210.4,1111.2,2194.9,1127,2190.4,1146.6z"/>
		<g class="st0">
			<rect y="1384.2" class="st3" width="2272" height="487.8"/>
		</g>
		<g class="st0">
			<circle class="st4" cx="926.9" cy="799" r="92"/>
			<g>
				<g>
					<circle class="st5" cx="1110.6" cy="909.4" r="115.2"/>
					<circle class="st6" cx="1155.6" cy="934" r="52.7"/>
					<circle class="st7" cx="788.4" cy="724" r="86.8"/>
					<circle class="st5" cx="648.4" cy="685.1" r="140"/>
					<polygon class="st8" points="862.8,992 1146,714.9 872.5,1035.7 					"/>
					<g>
						<rect x="821.2" y="637.2" class="st8" width="58.5" height="781.6"/>
						<polygon class="st9" points="828.3,851.8 648.4,693.1 828,923.1 						"/>
						<rect x="821.2" y="637.2" class="st9" width="13.7" height="781.6"/>
					</g>
					<path class="st8" d="M985.2,897.8c3.8,1.2,188.7-21.6,188.7-21.6L998,877.8L985.2,897.8z"/>
					<polygon class="st8" points="938.3,935.3 957.6,748.5 957.6,918.5 					"/>
					<polygon class="st9" points="733.6,794 640.9,794 752.4,814.4 					"/>
					<polygon class="st9" points="783,829.3 761,677.8 801.9,841.9 					"/>
				</g>
				<circle class="st4" cx="623.8" cy="810.8" r="61.1"/>
			</g>
			<circle class="st10" cx="865" cy="477.8" r="266.4"/>
			<path class="st11" d="M1129.7,508.6c-24.5-11.8-52-18.4-81-18.4c-103.6,0-187.6,84-187.6,187.6c0,23.3,4.3,45.7,12.1,66.3
				C1006.2,740.1,1114.7,638.6,1129.7,508.6z"/>
			<circle class="st10" cx="1110.6" cy="714.9" r="187.6"/>
			<circle class="st6" cx="1215.3" cy="685.1" r="69.6"/>
		</g>
		<g class="st0">
			<circle class="st4" cx="94.2" cy="767.8" r="92"/>
			<g>
				<g>
					<circle class="st5" cx="277.9" cy="878.2" r="115.2"/>
					<circle class="st6" cx="322.8" cy="902.8" r="52.7"/>
					<circle class="st7" cx="-44.4" cy="692.8" r="86.8"/>
					<circle class="st5" cx="-184.4" cy="653.9" r="140"/>
					<polygon class="st8" points="30,960.8 313.2,683.7 39.8,1004.6 					"/>
					<g>
						<rect x="-11.6" y="606" class="st8" width="58.5" height="781.6"/>
						<polygon class="st9" points="-4.4,820.6 -184.4,662 -4.7,891.9 						"/>
						<rect x="-11.6" y="606" class="st9" width="13.7" height="781.6"/>
					</g>
					<path class="st8" d="M152.5,866.6c3.8,1.2,188.7-21.6,188.7-21.6l-175.9,1.6L152.5,866.6z"/>
					<polygon class="st8" points="105.5,904.1 124.9,717.3 124.9,887.3 					"/>
					<polygon class="st9" points="-99.2,762.8 -191.8,762.8 -80.3,783.2 					"/>
					<polygon class="st9" points="-49.7,798.2 -71.7,646.6 -30.9,810.7 					"/>
				</g>
				<circle class="st4" cx="-209" cy="779.6" r="61.1"/>
			</g>
			<circle class="st10" cx="32.3" cy="446.6" r="266.4"/>
			<path class="st11" d="M296.9,477.4c-24.5-11.8-52-18.4-81-18.4c-103.6,0-187.6,84-187.6,187.6c0,23.3,4.3,45.7,12.1,66.3
				C173.4,708.9,282,607.4,296.9,477.4z"/>
			<circle class="st10" cx="277.9" cy="683.7" r="187.6"/>
			<circle class="st6" cx="382.6" cy="653.9" r="69.6"/>
		</g>
		<g class="st0">
			<circle class="st4" cx="2295.6" cy="773.4" r="92"/>
			<g>
				<g>
					<circle class="st5" cx="2479.4" cy="883.8" r="115.2"/>
					<circle class="st6" cx="2524.3" cy="908.4" r="52.7"/>
					<circle class="st7" cx="2157.1" cy="698.4" r="86.8"/>
					<circle class="st5" cx="2017.1" cy="659.5" r="140"/>
					<polygon class="st8" points="2231.5,966.4 2514.7,689.3 2241.2,1010.1 					"/>
					<g>
						<rect x="2189.9" y="611.6" class="st8" width="58.5" height="781.6"/>
						<polygon class="st9" points="2197,826.2 2017.1,667.5 2196.7,897.5 						"/>
						<rect x="2189.9" y="611.6" class="st9" width="13.7" height="781.6"/>
					</g>
					<path class="st8" d="M2353.9,872.2c3.8,1.2,188.7-21.6,188.7-21.6l-175.9,1.6L2353.9,872.2z"/>
					<polygon class="st8" points="2307,909.7 2326.3,722.9 2326.3,892.9 					"/>
					<polygon class="st9" points="2102.3,768.4 2009.6,768.4 2121.1,788.8 					"/>
					<polygon class="st9" points="2151.7,803.7 2129.7,652.2 2170.6,816.3 					"/>
				</g>
				<circle class="st4" cx="1992.5" cy="785.2" r="61.1"/>
			</g>
			<circle class="st10" cx="2233.7" cy="452.2" r="266.4"/>
			<path class="st11" d="M2498.4,483c-24.5-11.8-52-18.4-81-18.4c-103.6,0-187.6,84-187.6,187.6c0,23.3,4.3,45.7,12.1,66.3
				C2374.9,714.5,2483.4,613,2498.4,483z"/>
			<circle class="st10" cx="2479.4" cy="689.3" r="187.6"/>
			<circle class="st6" cx="2584" cy="659.5" r="69.6"/>
		</g>
		<g class="st0">
			<circle class="st11" cx="324.5" cy="446.7" r="139.8"/>
			<g>
				<g>
					<circle class="st11" cx="603.7" cy="614.4" r="175"/>
					<circle class="st5" cx="672" cy="651.8" r="80.1"/>
					<circle class="st7" cx="114" cy="332.8" r="131.9"/>
					<circle class="st5" cx="-98.7" cy="273.7" r="212.7"/>
					<polygon class="st8" points="227.1,739.9 657.4,318.9 241.9,806.4 					"/>
					<g>
						<rect x="163.9" y="200.9" class="st8" width="88.9" height="1187.5"/>
						<polygon class="st9" points="174.7,527 -98.7,285.9 174.3,635.2 						"/>
						<rect x="163.9" y="200.9" class="st9" width="20.8" height="1187.5"/>
					</g>
					<path class="st8" d="M413.1,596.9c5.8,1.9,286.7-32.8,286.7-32.8l-267.3,2.4L413.1,596.9z"/>
					<polygon class="st8" points="341.8,653.8 371.2,370 371.2,628.3 					"/>
					<polygon class="st9" points="30.8,439.1 -110,439.1 59.4,470.2 					"/>
					<polygon class="st9" points="105.9,492.8 72.5,262.6 134.6,511.9 					"/>
				</g>
				<circle class="st7" cx="-136" cy="464.7" r="92.9"/>
			</g>
			<circle class="st5" cx="230.5" cy="-41.3" r="404.8"/>
			<path class="st10" d="M632.6,5.5c-37.3-17.9-79-27.9-123.1-27.9c-157.4,0-285,127.6-285,285c0,35.5,6.5,69.4,18.3,100.7
				C445,357.2,609.9,203,632.6,5.5z"/>
			<circle class="st5" cx="603.7" cy="318.9" r="285"/>
			<circle class="st6" cx="762.7" cy="273.7" r="105.7"/>
		</g>
		<g class="st0">
			<circle class="st11" cx="2081.7" cy="446.7" r="139.8"/>
			<g>
				<g>
					<circle class="st5" cx="2360.9" cy="614.4" r="175"/>
					<circle class="st6" cx="2429.2" cy="651.8" r="80.1"/>
					<circle class="st7" cx="1871.3" cy="332.8" r="131.9"/>
					<circle class="st5" cx="1658.5" cy="273.7" r="212.7"/>
					<polygon class="st8" points="1984.3,739.9 2414.6,318.9 1999.1,806.4 					"/>
					<g>
						<rect x="1921.1" y="200.9" class="st8" width="88.9" height="1187.5"/>
						<polygon class="st9" points="1932,527 1658.5,285.9 1931.5,635.2 						"/>
						<rect x="1921.1" y="200.9" class="st9" width="20.8" height="1187.5"/>
					</g>
					<path class="st8" d="M2170.3,596.9c5.8,1.9,286.7-32.8,286.7-32.8l-267.3,2.4L2170.3,596.9z"/>
					<polygon class="st8" points="2099,653.8 2128.4,370 2128.4,628.3 					"/>
					<polygon class="st9" points="1788,439.1 1647.2,439.1 1816.6,470.2 					"/>
					<polygon class="st9" points="1863.1,492.8 1829.7,262.6 1891.8,511.9 					"/>
				</g>
				<circle class="st7" cx="1621.2" cy="464.7" r="92.9"/>
			</g>
			<circle class="st5" cx="1987.7" cy="-41.3" r="404.8"/>
			<path class="st10" d="M2389.8,5.5c-37.3-17.9-79-27.9-123.1-27.9c-157.4,0-285,127.6-285,285c0,35.5,6.5,69.4,18.3,100.7
				C2202.2,357.2,2367.1,203,2389.8,5.5z"/>
			<circle class="st5" cx="2360.9" cy="318.9" r="285"/>
			<circle class="st6" cx="2519.9" cy="273.7" r="105.7"/>
		</g>
		<path class="st12" d="M1773.5,1530.1l-340.4-13.2L422,1604.4l35.3,17.7l492.2,41l824.8-117.4
			C1783.7,1544.4,1783,1530.5,1773.5,1530.1z"/>
		<g class="st0">
			<g>
				<rect x="1456.6" y="1136.1" class="st13" width="291.7" height="47.1"/>
				<rect x="1456.6" y="965.5" class="st13" width="291.7" height="47.1"/>
				<rect x="1456.6" y="801.1" class="st13" width="291.7" height="47.1"/>
				<g>
					<path class="st13" d="M1724.8,640.2V1517c0,13,10.5,23.5,23.5,23.5l0,0c13,0,23.5-10.5,23.5-23.5V640.2H1724.8z"/>
					<path class="st13" d="M1433.1,635.2V1512c0,13,10.5,23.5,23.5,23.5l0,0c13,0,23.5-10.5,23.5-23.5V635.2H1433.1z"/>
					<rect x="1456.6" y="1305.2" class="st13" width="291.7" height="47.1"/>
				</g>
			</g>
			<g>
				<path class="st14" d="M1335.1,566.5h-14.9c-22.2,0-43,10.7-55.8,28.8l-559.2,747.9c-11.5,16.2-27.1,28.9-45.3,36.8l-181.7,79.1
					c-26.3,11.5-45.8,34.5-52.6,62.4l-11.3,46c-6.8,27.8,14.2,54.6,42.9,54.6H522c19.5,0,36.6-12.7,42.3-31.4v0
					c5.3-17.4,17.6-31.8,34-39.6l181.5-86.4c15.3-7.3,28.2-18.6,37.5-32.7l552.3-799.9C1388.8,604.4,1368.9,566.5,1335.1,566.5z"/>
				<path class="st15" d="M915.1,1604.4H557.3c-47.4,0-33.4-119-15-123.7c0,0,186.2-39.4,241.8-117l491.5-687.3
					c27.9-38.9,72.9-62,120.8-62h393.6l-571.3,829.8v0c-23.5,32.7-55.2,58.7-91.9,75.3l-166.1,75
					C946.4,1601,930.8,1604.4,915.1,1604.4z"/>
				<path class="st15" d="M542.3,1480.7c-18.4,4.6-32.4,123.7,15,123.7h357.8c15.8,0,31.4-3.4,45.7-9.9l166.1-75
					c36.7-16.6,68.4-42.6,91.9-75.3v0l24.8-36c-123.7,0-371.5,0-509.8,0C657.5,1456.4,542.3,1480.7,542.3,1480.7z"/>
				<path class="st16" d="M557.3,1604.4h357.8c15.8,0,31.4-3.4,45.7-9.9l166.1-75c8.6-3.9,16.9-8.3,24.9-13.2H529.2
					C520.9,1542.6,523.2,1604.4,557.3,1604.4z"/>
				<path class="st14" d="M1639.4,614.4l-679,843.5c0,0-198.3,20.6-234.4,146.5h189c15.8,0,31.4-3.4,45.7-9.9l166.1-75
					c36.7-16.6,68.4-42.6,91.9-75.3v0l571.3-829.8H1639.4z"/>
				<path class="st15" d="M726,1604.4h189c15.8,0,31.4-3.4,45.7-9.9l166.1-75c2.2-1,4.4-2,6.5-3.1c1.8-0.9,3.5-1.8,5.2-2.7
					c0.3-0.2,0.7-0.3,1-0.5c4.1-2.2,8.2-4.5,12.2-6.9c0,0,0,0,0,0h-342C772.1,1528.3,738.8,1559.7,726,1604.4z"/>
				<path class="st15" d="M1764.8,566.5h-17.1c-22.2,0-43,10.7-55.8,28.8l-559.2,788.9c-11.5,16.2-27.1,28.9-45.3,36.8l-181.7,79.1
					c-26.3,11.5-45.8,34.5-52.6,62.4l-11.3,46c-6.8,27.8,14.2,54.6,42.9,54.6h64.7c19.5,0,36.6-12.7,42.3-31.4l0,0
					c5.3-17.4,17.6-31.8,34-39.6l181.5-86.4c15.3-7.3,28.2-18.6,37.5-32.7l554.9-841.8C1818,603.5,1798.1,566.5,1764.8,566.5z"/>
				<path class="st16" d="M1168.5,1414l601.3-847.2c-1.6-0.2-3.3-0.3-5-0.3h-17.1c-22.2,0-43,10.7-55.8,28.8l-559.2,788.9
					c-11.5,16.2-27.1,28.9-45.3,36.8l-181.7,79.1c-15.1,6.6-27.9,16.9-37.3,29.8h123.5L1168.5,1414z"/>
			</g>
		</g>
		<g class="st0">
			<path class="st17" d="M1042.4,997.9c-17.6,21.1-34.3,45.1-36.1,72.5c-0.1,1.9-0.1,4.1,1.2,5.5c1.9,2.1,5.2,1.6,7.9,0.8
				c53.9-16.1,90.4-70.8,145.2-83.5c5.5-1.3,11.6-2,16.6,0.7c8.3,4.5,9.3,16,8.2,25.4c-6.4,55.7-46.9,108.6-32.4,162.7
				c2.5,9.2,8.4,19.3,17.9,19.6c5.7,0.2,10.8-3.3,15.2-6.8c13.4-10.8,25-23.6,36.5-36.4c36.4-40.3,73-80.9,101.3-127.3
				c12.8-21,23.8-43,34.8-65c43.8-88,89.2-179.3,166.2-240.4c23.6-18.7,50.4-34.9,67.1-60c8.9-13.4,14.3-31.7,5.5-45.2
				c-9.7-14.9-30.7-15.9-48.4-15.4c-19.8,0.6-39.7,1.2-59.5,2c-18.1,0.7-36.7,1.7-52.9,9.6c-10.9,5.3-20.2,13.4-29,21.9
				c-39.1,37.8-69.7,83.2-103.3,125.9c-35.8,45.5-75.8,80.5-123.3,113.2C1129.8,913,1082.5,949.8,1042.4,997.9z"/>
			<g>
				<path class="st18" d="M1153.1,865.9c0,0-97.8,9.1-143.4,70.1l20.4,51.1c0,0,54-88.2,142.7-91.8L1153.1,865.9z"/>
				<path class="st18" d="M1250.1,965.5c-5,5.8-67.6,76.5-69.7,166.3h34.8c0,0,12.1-113.3,79.5-149.4L1250.1,965.5z"/>
				<path class="st19" d="M1248.6,820.2c0,0-74.6,8.5-107.2,34.5c0,0-3.2,35.1,41.2,50.1l106.1-4l-65.3,64.7
					c0,0,72.6,64.4,108.4,30.1l79-128.8C1410.8,866.8,1299.6,810.3,1248.6,820.2z"/>
				<g>
					<g>
						<path class="st18" d="M1161.2,553.4c0,0,171.8,200.3,462.9,26.3l12,20.5c0,0-79.1,84.2-184.9,98.7c0,0-11.7,138.1-45.5,174.4
							c0,0-112.1,15.3-161.3-53.3c0,0,8.1-74.3,33.9-121.1c0,0-86-17-131.3-128.8L1161.2,553.4z"/>
						<path class="st20" d="M1194,583.1c-6,7.7-15.9,21.6-21.2,35.9c46,68.2,105.5,80,105.5,80c-25.8,46.8-33.9,121.1-33.9,121.1
							c49.3,68.6,161.3,53.3,161.3,53.3c33.7-36.3,45.5-174.4,45.5-174.4c50.9-7,95.6-30.1,128.3-52.2l-16.8-34.9
							C1378.8,694.3,1250.7,626.7,1194,583.1z"/>
						<path class="st21" d="M1318.9,714c10.7-5.6,20.8-12.3,30.3-19.9c27.4,10.3,57,14.3,86.1,11.6c-1.8-8.7-3.5-18.1,0-26.2
							c2-4.5,5.4-8.3,8.9-11.7c13-12.6,28.3-22.1,44.6-29.7c-67.9,17.8-126.4,14.9-174.3,3.1C1309.7,664.3,1310,695.3,1318.9,714z"
							/>
						<path class="st22" d="M1317.6,662.5c0,0-47.6-17.3-31.4-44.7c16.1-27.4,30.4-123.8,137.5-163.6
							c107-39.8,204.6-41.8,204.6-41.8s15.4,82.2,152.4,69.7c11-1,53.8,22.3,53.8,22.3s-387.7,128.1-407,161.9
							C1427.4,666.3,1390.4,707.6,1317.6,662.5z"/>
						<path class="st23" d="M1453.4,624.5c36.2-23.6,76.8-39.5,115.8-58c26.4-12.5,52.2-26.3,77.4-41.3c5.1-3,10.9-8.6,8.1-13.8
							c-11-0.2-22-0.8-32.9-1.7c-24.5-2.1-49.4-6.2-71.2-17.6c-17.7-9.3-33-23.2-43.8-40.1c-4.1-6.4-7.5-13.1-10.3-20.1
							c-23,5.7-47.7,12.9-72.8,22.3c-107,39.8-121.3,136.2-137.5,163.6c-16.1,27.4,31.4,44.7,31.4,44.7
							c20.4,12.6,37.9,18.4,52.6,20.3c1.9-1.1,3.8-2.2,5.6-3.3C1402.9,663,1426.8,641.8,1453.4,624.5z"/>
					</g>
					<g>
						<path class="st19" d="M1388.8,639.6c2.2,2,37.3,8.8,42.2,49.4c0,0-46.3,9.5-72-32.8C1359,656.2,1371.8,623.8,1388.8,639.6z"/>
						<path class="st22" d="M1423.6,679.6c-17.9-14-38-25.4-59.2-33.6c1.7-2.6,3.9-5.2,6.3-7.2c1.5,0.8,2.9,1.8,4.4,2.7
							C1392.2,653,1409.5,664.6,1423.6,679.6z"/>
					</g>
					<g>
						<path class="st19" d="M1336.9,639.6c-2.2,2-37.3,8.8-42.2,49.4c0,0,46.3,9.5,72-32.8C1366.7,656.2,1353.9,623.8,1336.9,639.6z
							"/>
						<path class="st22" d="M1302.1,679.6c17.9-14,38-25.4,59.2-33.6c-1.7-2.6-3.9-5.2-6.3-7.2c-1.5,0.8-2.9,1.8-4.4,2.7
							C1333.5,653,1316.2,664.6,1302.1,679.6z"/>
					</g>
					<g>
						<g>
							<path class="st24" d="M1528.7,508.4c0,0,39.6-30,46.4,0c6.8,30-62.8,45-62.8,45L1528.7,508.4z"/>
							<path class="st24" d="M1238.7,508.4c0,0-39.6-30-46.4,0s62.8,45,62.8,45L1238.7,508.4z"/>
							<path class="st18" d="M1224.4,441.5c0,0-23.2,215.6,159.7,210.2s158.3-210.2,158.3-210.2S1314.4,236.8,1224.4,441.5z"/>
							<path class="st24" d="M1542.4,441.5c0,0-227.9-204.7-318,0c0,0-3.5,32.6,2.9,72c3.2,6.9,6.4,13.8,9.7,20.7
								c1.3-24.6,6.5-48.9,15.3-71.9c0.9-2.3,2.3-5,4.7-5.3c1.7-0.2,3.3,0.8,4.7,1.7c30.9,20.2,69.6,28.3,106,22.1
								c-15.2-12.5-27.1-29.1-34.1-47.5c5.6,5.6,11.5,11,18,15.6c28.7,20.4,65.6,24.1,100.6,27.1c-18.5-7.5-26.4-29-32.1-48.1
								c9.7,13.3,23.1,23.7,38.4,29.8c15.5,6.1,32.3,7.6,48.9,9.1c11.9,1.1,23.9,2.1,35.9,2.8
								C1543.7,452.6,1542.4,441.5,1542.4,441.5z"/>
							<path class="st25" d="M1204.8,450.3l33.9,58.1c0,0,6.8-61.2,16.4-79.7c0,0,26,48.4,109.5,23.7l-15.5-23.7
								c0,0,55.7,34,105.1,33l-14.4-33c0,0,47.4,30.9,80.4,27.8l-14.4-27.8l24.7,26.8l-18.2,98l41.7-57.6c0,0,40.4-25.9,51.7-44.5
								l-25.8-3.1c0,0,28.9-28.9,42.3-51.5h-33c0,0,9.3-83.5-1-125.8l-59.8,21.6l-5.2-91.7c0,0-138.1,28.9-163.9,67l7.2-47.4
								c0,0-113.4,52.6-119.6,102.1l-23.7-29.9c0,0-35.1,45.4-18.6,74.2l-23.7-16.3c0,0,0.1,30.8,23.7,56.5c0,0-25.8,10.3-23.7,45.4
								L1204.8,450.3z"/>
							<path class="st26" d="M1337.1,339.7c-7.5,6.2-12.8,14.9-14.9,24.3c-1.7-20.4,1-41.2,7.9-60.5c-14.1,8.3-27.3,18.2-39.3,29.4
								c15.5-33,34.5-72.1,54.1-101.4c-33.3,18-93.3,55.3-97.8,90.9l-23.7-29.9c0,0-35.1,45.4-18.6,74.2l-23.7-16.3
								c0,0,0.1,30.8,23.7,56.5c0,0-25.8,10.3-23.7,45.4l23.7-2.1l33.9,58.1c0,0,6.8-61.2,16.4-79.7c0,0,26,48.4,109.5,23.7
								l-15.5-23.7c0,0,55.7,34,105.1,33l-3.6-8.2C1405.6,423.8,1366.6,384.9,1337.1,339.7z"/>
						</g>
						<path class="st27" d="M1327.5,592.4c0,0,86.7,11.8,135-28.4C1462.5,564,1406.6,690.5,1327.5,592.4z"/>
						<path class="st28" d="M1392.2,610.9c-0.6,0.5-1.3,1-2,1.2c-1.1,0.3-2.3-0.2-3.3-0.6c-7.2-2.9-15.6-2.7-22.7,0.4
							c-3.6,1.5-6.8,3.8-9.5,6.6c29.3,20,54.3,10.5,72.8-5.8c-3.7-3.5-8.3-6-13.3-7C1406.5,604.1,1398.3,606.1,1392.2,610.9z"/>
						<path class="st29" d="M1452.8,581.9c6.3-10.1,9.7-17.8,9.7-17.8c-48.3,40.3-135,28.4-135,28.4c3.1,3.8,6.2,7.4,9.2,10.5
							C1359.2,605.5,1404.3,606.3,1452.8,581.9z"/>
						<path class="st29" d="M1364.5,624.2c20.8,9.9,39.1,5.4,54-4.6C1400.6,616.2,1381.7,617.7,1364.5,624.2z"/>
						<ellipse class="st28" cx="1290.2" cy="570.4" rx="32.3" ry="17"/>
						<ellipse class="st28" cx="1481.7" cy="553.4" rx="32.3" ry="17"/>
						<path class="st25" d="M1410.8,522.3c0,0,20-61.1,92.2-24l9.3-6.1l-5.6,10.2C1506.7,502.4,1460.3,479.9,1410.8,522.3z"/>
						<path class="st25" d="M1355.9,527c0,0-24.8-59.3-93.8-16.7l-9.8-5.3l6.4,9.7C1258.7,514.6,1303.2,488.6,1355.9,527z"/>
						<path class="st24" d="M1361.1,558.5c0,0,27.3,33.7,49.8-5.1C1410.8,553.4,1381.2,562.8,1361.1,558.5z"/>
					</g>
					<path class="st18" d="M1161.2,553.1c0,0,15.3-22.9,8-26.1c-7.3-3.2-13.1,5.3-13.1,5.3s-2.5-30.1-9.9-31.4
						c-6.4-1.1-3.8,18.8-3,23.7c0.1,0.7-0.2,1.3-0.8,1.6l0,0c-0.8,0.4-1.8,0.1-2.1-0.8c-2.4-5.4-11.1-23.5-16.2-17.4
						c-5.4,6.3,7,18.2,9.9,20.9c0.3,0.3,0.4,0.8,0.2,1.2l0,0c-0.3,0.5-0.9,0.6-1.3,0.3c-3.7-2.3-18.4-11-20.9-4.3
						c-2.4,6.8,12.8,8.7,16.8,9.1c0.5,0.1,1,0.5,1.1,1l0,0c0.1,0.7-0.4,1.4-1.1,1.5c-4.8,0.3-19.6,1.7-12.5,6.3
						c8.4,5.4,12.4,3,12.4,3s1.5,19.5,18.5,23.3L1161.2,553.1z"/>
					<path class="st18" d="M1616.3,587.8c0,0-15.3-22.9-8-26.1s13.1,5.3,13.1,5.3s2.5-30.1,9.9-31.4c6.4-1.1,3.8,18.8,3,23.7
						c-0.1,0.7,0.2,1.3,0.8,1.6l0,0c0.8,0.4,1.8,0.1,2.1-0.8c2.4-5.4,11.1-23.5,16.2-17.4c5.4,6.3-7,18.2-9.9,20.9
						c-0.3,0.3-0.4,0.8-0.2,1.2l0,0c0.3,0.5,0.9,0.6,1.3,0.3c3.7-2.3,18.4-11,20.9-4.3c2.4,6.8-12.8,8.7-16.8,9.1
						c-0.5,0.1-1,0.5-1.1,1l0,0c-0.1,0.7,0.4,1.4,1.1,1.5c4.8,0.3,19.6,1.7,12.5,6.3c-8.4,5.4-12.4,3-12.4,3s-1.5,19.5-18.5,23.3
						L1616.3,587.8z"/>
					<polygon class="st15" points="1349.7,689.8 1361.7,723.4 1396.3,732.5 1368,754.4 1370.1,790 1340.6,769.9 1307.3,782.9 
						1317.3,748.6 1294.7,721 1330.4,719.9 					"/>
				</g>
				<g>
					<path class="st13" d="M1035.4,979.2l-17.8-52.7l-7.9,9.5c0,0-18.1-46.9-44.3-55.7c-25-8.3-26.8,32.4,10.5,110.9
						c5.6,11.9,18.6,18.8,31.4,16.1c8.1-1.7,16.5-7.1,22.8-20.2L1035.4,979.2z"/>
					<path class="st30" d="M952,882.2c-10.4,10.5-4.8,48.6,23.9,108.9c5.6,11.9,18.6,18.8,31.4,16.1c0.9-0.2,1.8-0.4,2.7-0.7
						C1009.7,927.9,966.7,892.2,952,882.2z"/>
				</g>
				<g>
					<path class="st13" d="M1215.7,1128.3l-35.4-17l-2.3,12.2c0,0-38.6-32.3-65.8-27.2c-25.9,4.8-7.7,41.4,62.9,91.9
						c10.7,7.6,25.4,7.4,35.3-1.2c6.2-5.4,11-14.2,10.1-28.7L1215.7,1128.3z"/>
					<path class="st30" d="M1101.5,1104.5c-4,14.2,19.3,44.8,73.7,83.7c10.7,7.6,25.4,7.4,35.3-1.2c0.7-0.6,1.4-1.3,2-2
						C1174.1,1116.5,1119.1,1106.1,1101.5,1104.5z"/>
				</g>
			</g>
		</g>
		<g class="st0">
			<polygon class="st31" points="1675.9,1735.1 1746.3,1719.8 2176.1,1703.2 2078.7,1672.7 2016.5,1645.2 1970.5,1630.6 
				1772.9,1672.7 1759.4,1689.2 1736.9,1693 1667.2,1714.1 			"/>
			<g>
				<path class="st24" d="M1780.9,1355.1l-67.5-6c0,0-99.8,5-136.7,0.7c-3.1-0.4-6,1.2-7.4,4c-4.2,8.2-11.5,25.1-5.5,32
					c1.3,1.5,3.2,2.3,5.2,2.3c18.6,0.3,169.7,2.3,224.4-17L1780.9,1355.1z"/>
				<path class="st24" d="M1813.7,1512.7l130.4,91.6l90.2-41l-7-15.9c0,0-53.1-4.9-74.5,13.9l-67.7-86L1813.7,1512.7z"/>
				<path class="st18" d="M1970.5,1516.5l-148.2,110.7c0,0-37.8,32.5-62.9,62l-27.6-17.9l73.9-77.9l51.7-66.3
					C1857.4,1527,1942.4,1497.5,1970.5,1516.5z"/>
				<path class="st32" d="M1984.9,1488.9c0,0-0.8,0.4-2.3,1C1983.4,1489.6,1984.2,1489.3,1984.9,1488.9l-87.2-182.1
					c0,0-124.2,13.3-151.5,45.3l49,154.7l-7.3,43.2c0,0,135.4,68.3,209-34.2L1984.9,1488.9z"/>
				<path class="st33" d="M1886.2,1408.5c12.5-7.9,24.1-19.2,27-33.7c-10-1.7-20.3-1.8-30.5-1c-41.1,3.1-80.5,19.5-120.5,28.5
					l13.1,41.3c12.8-3.1,25.6-6.1,38.4-9.2C1838.8,1428.5,1864.3,1422.3,1886.2,1408.5z"/>
				<g>
					<g>
						<path class="st25" d="M1577.5,1399l-3.9-0.6c0.1-0.7,13.5-80.5,42.7-164.1c17.2-49.1,37-93.6,59-132.2
							c27.5-48.3,58.5-87.4,92.1-116.3c67.2-57.8,128.3-127.5,172.1-196.1c39.1-61.4,61-117.5,58.7-150.2l4-0.3
							c4.9,68.2-87.2,224.9-232.1,349.6c-33.3,28.6-64,67.4-91.3,115.3c-21.9,38.4-41.6,82.6-58.7,131.5
							C1591,1318.9,1577.6,1398.3,1577.5,1399z"/>
					</g>
					<path class="st34" d="M1939.5,789.6l-25.8,21.1c0,0,15.9,15.7,29.3,12c13.4-3.7,6.1-29.3,6.1-29.3L1939.5,789.6z"/>
					
						<ellipse transform="matrix(0.272 -0.9623 0.9623 0.272 857.3253 2381.2439)" class="st34" cx="2002.4" cy="624" rx="181.4" ry="134.8"/>
					<path class="st35" d="M2119,505.1c-4.8,32.8-9.5,65.7-14.3,98.5c-3.6,24.5-7.3,49.7-19,71.5c-15.3,28.4-43.2,48.8-73.8,59.1
						c-30.6,10.3-63.7,11.1-95.7,7.2c-11.8-1.4-23.8-3.7-35.1-7.6c15.3,32.1,40.1,55.8,72,64.8c71.6,20.2,151.8-41.5,179-137.9
						C2148.4,603,2142,545.9,2119,505.1z"/>
					
						<ellipse transform="matrix(0.5576 -0.8301 0.8301 0.5576 422.4252 1856.4348)" class="st36" cx="1952.8" cy="531.9" rx="55" ry="35"/>
				</g>
				<path class="st37" d="M1902,1260.9c14.4,9.3,27,22.7,31.3,39.3s-1.9,36.5-17.1,44.5c13.9-6.2,24.8-18.6,29.2-33.2
					c19.7,8.9,44.4,16,61.6,3c8.2-6.2,13-16,16.2-25.9c8.8-27.1,7.7-57.2-2.9-83.6c-6.7-16.6-17.5-32-32.7-41.3
					c-15.2-9.3-35.3-11.7-51.1-3.3c-17.4,9.2-26.7,29.5-28,49.1c-1.3,19.6,4.1,39,9.4,58"/>
				<g>
					<g>
						<path class="st24" d="M1938.1,1227.8c0,0,39.6-30,46.4,0c6.8,30-62.8,45-62.8,45L1938.1,1227.8z"/>
						<path class="st24" d="M1648,1227.8c0,0-39.6-30-46.4,0c-6.8,30,62.8,45,62.8,45L1648,1227.8z"/>
						<path class="st18" d="M1633.7,1160.9c0,0-23.2,215.6,159.7,210.2c182.9-5.5,158.3-210.2,158.3-210.2
							S1723.8,956.2,1633.7,1160.9z"/>
						<path class="st24" d="M1657.5,1198.6c1.7-0.1,3.2,0.6,4.7,1.3c37.8,18.2,78.9,30.3,120.8,31.6c41.9,1.3,84.7-8.7,119.8-31.7
							c-10.4-0.5-20.5-4.5-28.4-11.3c22.1,0,44.1,8.6,60.2,23.7c5.6,5.2,10.4,11.2,14.5,17.7c6.2-38.1,2.5-69.1,2.5-69.1
							s-227.9-204.7-318,0c0,0-4.3,39.6,5.3,84.5c2-14,6-27.8,12.1-40.6C1652.5,1202,1654.4,1198.9,1657.5,1198.6z"/>
					</g>
					<path class="st27" d="M1736.9,1311.8c0,0,86.7,11.8,135-28.4C1871.8,1283.4,1816,1409.9,1736.9,1311.8z"/>
					<path class="st28" d="M1801.6,1330.3c-0.6,0.5-1.3,1-2,1.2c-1.1,0.3-2.3-0.2-3.3-0.6c-7.2-2.9-15.6-2.7-22.7,0.4
						c-3.6,1.5-6.8,3.8-9.5,6.6c29.3,20,54.3,10.5,72.8-5.8c-3.7-3.5-8.3-6-13.3-7C1815.9,1323.5,1807.6,1325.5,1801.6,1330.3z"/>
					<path class="st29" d="M1862.1,1301.3c6.3-10.1,9.7-17.8,9.7-17.8c-48.3,40.3-135,28.4-135,28.4c3.1,3.8,6.2,7.4,9.2,10.5
						C1768.5,1324.9,1813.6,1325.7,1862.1,1301.3z"/>
					<path class="st29" d="M1773.9,1343.6c20.8,9.9,39.1,5.4,54-4.6C1809.9,1335.6,1791,1337.1,1773.9,1343.6z"/>
					<ellipse class="st28" cx="1699.5" cy="1289.8" rx="32.3" ry="17"/>
					<ellipse class="st28" cx="1891" cy="1272.8" rx="32.3" ry="17"/>
				</g>
				<path class="st18" d="M1891,1349.1c0,0-105,44-188.9,45.1c-11.4,0.2-19.2,11.8-14.8,22.3c0.1,0.2,0.1,0.3,0.2,0.5
					c2.7,6.2,9.1,10,15.9,9.5c34.9-2.4,159.2-13.1,220-46.3C1923.4,1380.2,1931.5,1348.9,1891,1349.1z"/>
				<path class="st24" d="M1588,1358.8c0,0-20.1,7-16.1,11.6s5.6,13.6,17.5,4.2C1601.4,1365.2,1598.6,1358.1,1588,1358.8z"/>
				<polygon class="st13" points="1736.5,1666.3 1667.2,1666.3 1746.3,1719.8 1759.4,1689.2 				"/>
				<path class="st13" d="M2034.3,1563.3c0,0,44.8,26,44.3,24c-0.5-2-19.9-43.8-29.4-47.8s-22,8-22,8L2034.3,1563.3z"/>
				<path class="st24" d="M1784.7,1272.8c0,0-31.4,23.2,8.1,30.7c39.5,7.5,3.4,0,3.4,0S1770.3,1299.5,1784.7,1272.8z"/>
				<path class="st25" d="M1912.4,1217.7c-2-1-4-2-6-2.9c2.8-1.6,7.8-5.3,10.2-11.9c0,0-7.8,5.7-17.1,9
					c-61.7-23.8-79.3,29.8-79.3,29.8c49.5-42.4,95.9-19.9,95.9-19.9l5.6-10.2L1912.4,1217.7z"/>
				<path class="st25" d="M1684.8,1222.4c-9.2-3.3-16.9-8.9-16.9-8.9c2.5,6.9,7.8,10.6,10.5,12.1c-2.3,1.2-4.7,2.6-7.1,4.1l-9.8-5.3
					l6.4,9.7c0,0,44.5-26.1,97.2,12.3C1765.2,1246.4,1743.7,1194.9,1684.8,1222.4z"/>
				<path class="st38" d="M1962.2,1184c1.7,5.6,4.2,9.2,4.1,15.1c-15.4-8.3-30.1-25.9-40.6-39.9c0.2,8.9,1,17.9,4,26.3
					c3,8.4,6.2,13.3,13.9,17.9c-15.6-12.9-33-23.5-51.6-31.5c-9.2-3.9-18.8-7.3-28.7-8.1c-7.3-0.7-14.7,0-22.1,0.7
					c-4.3,0.4-9,1.7-13.2,2.1c14.6,6.3,33.6,7.3,49.1,3.8c-50.6,34.6-117.4,42.2-176.2,24.7c-22.1-6.6-44.3-17.4-57-36.6
					c-9.3,35.8-9.9,73.7-1.7,109.7c-20.7-19.1-32.1-43.9-41.5-70.3c-2.4-6.6-4.7-13.4-4.3-20.4c1.3-20.7,4.2-42.8,14.8-60.6
					c10.7-17.8,26.4-32.4,44.3-42.8c3.1-33.5,25-60.5,54.1-77.4c35.8-20.8,79.2-28.5,120-21.2c-4.6,1-11.1,6.4-13.9,10.1
					c26.2-3.5,51.9,8.8,74.1,23.2c22.2,14.4,43.3,31.5,68.5,39.5c26.4,8.4,56.9,6.7,79.3,23.1c10.3,7.5,17.8,18.2,24.5,29.1
					c11.9,19.3,21.8,40.1,26,62.3s2.3,46.1-8.4,66.1c-1.8-1.7-5.7-0.7-7.5-2.4c-0.3,16.9-8.2,32.5-16,47.5
					c-5.4,10.4-10.8,20.8-18.5,29.7c-4.2,4.9-9.1,9.2-14.3,13c-17.9,13.2-40,20.6-62.2,21c18-12.1,31.4-31,34.4-52.6
					c2.9-21.6-3.7-44.2-17.8-60.8c-1.7-1.9-3.4-3.9-4.3-6.3c-1.3-3.9,0.1-8.1,0.6-12.2C1974.9,1197.5,1968.1,1189.8,1962.2,1184z"/>
				<path class="st39" d="M2043.6,1163.4c-2.3,7.8-4.6,15.7-7,23.5c-7.5-22.4-24.4-41-44.5-53.5s-43.4-19.1-66.8-22.4
					c-10.9-1.5-22.1-2.4-32.6-5.8c-5.9-1.9-11.5-4.6-17.6-5.7c-3,13.7-1.1,26.4,0.4,40.4c-17.6-10.7-39.6-10.3-60-8.2
					s-41.5,5.5-61.3-0.3c12.3,10.6,32.5,16.3,46.6,24.3c-44.4,21.2-100.7,14.5-139-16.5c-5.8-4.7-11.8-12.3-14.4-19.4
					c-6.6,5.8-11.7,13.2-15,21.4c-4.2,10.5-5.2,21.9-5.5,33.2c-0.8,31.3,3.9,62.6,13.8,92.3c0.5,0.5,1,1,1.5,1.5
					c-8.2-36-7.6-74,1.7-109.7c12.7,19.2,34.9,30,57,36.6c58.8,17.5,125.6,9.9,176.2-24.7c-15.5,3.5-34.5,2.5-49.1-3.8
					c4.3-0.4,9-1.7,13.2-2.1c7.3-0.7,14.7-1.4,22.1-0.7c10,0.9,19.5,4.2,28.7,8.1c15.8,6.8,30.8,15.5,44.6,25.9
					c-3-3.3-5-7.1-6.9-12.3c-3-8.4-3.8-17.4-4-26.3c10.5,14,25.2,31.6,40.6,39.9c0.1-5.8-2.4-9.5-4.1-15.1
					c5.9,5.8,12.7,13.6,11.7,21.8c-0.5,4.1-1.9,8.3-0.6,12.2c0.8,2.4,2.6,4.3,4.3,6.3c14.1,16.5,20.8,39.2,17.8,60.8
					c-2.9,21.6-16.3,40.4-34.4,52.6c22.2-0.4,44.3-7.8,62.2-21c5.2-3.8,10.1-8.1,14.3-13c7.7-8.8,13.1-19.3,18.5-29.7
					c7.8-15,15.7-30.6,16-47.5c1.1,1,3,1.1,4.7,1.3c-2.9-7-6.3-13.7-9.7-20.5C2059.4,1192.5,2051.6,1177.9,2043.6,1163.4z"/>
			</g>
		</g>
		<ellipse class="st40" cx="1136.1" cy="1727.4" rx="44.9" ry="7.7"/>
		<ellipse class="st40" cx="2123.6" cy="1517" rx="44.9" ry="7.7"/>
		<ellipse class="st40" cx="1686.1" cy="1827.4" rx="44.9" ry="7.7"/>
		<ellipse class="st40" cx="70.6" cy="1555.4" rx="44.9" ry="7.7"/>
		<ellipse class="st40" cx="1319.1" cy="1454.9" rx="44.9" ry="7.7"/>
		<ellipse class="st40" cx="121.8" cy="1821.8" rx="33.1" ry="5.7"/>
		<ellipse class="st41" cx="1024.4" cy="1796.7" rx="33.1" ry="5.7"/>
		<ellipse class="st41" cx="1538.3" cy="1698.2" rx="33.1" ry="5.7"/>
		<ellipse class="st41" cx="2090" cy="1796.7" rx="33.1" ry="5.7"/>
		<ellipse class="st41" cx="1276.1" cy="1802.3" rx="33.1" ry="5.7"/>
		<ellipse class="st41" cx="692.9" cy="1748.6" rx="33.1" ry="5.7"/>
		<g class="st0">
			<g>
				<polygon class="st31" points="189.8,2120.2 281.3,2100.2 840.5,2078.7 713.8,2039 632.9,2003.3 573.1,1984.2 315.9,2039 
					298.4,2060.4 269.1,2065.4 178.4,2092.9 				"/>
				<g>
					<path class="st24" d="M394,1621.4l-108.9-9.6c0,0-161.1,8-220.8,1.1c-4.9-0.6-9.7,2-11.9,6.4c-6.7,13.3-18.5,40.5-8.9,51.7
						c2.1,2.4,5.2,3.7,8.4,3.7c30.1,0.5,274,3.8,362.3-27.4L394,1621.4z"/>
					<path class="st42" d="M336.2,1562.6c-2.4,0.5-80.9,32.9-133.6,28.8c-52.6-4-109.1,2.2-115.3,24.5c0,0,12.3,47-5.6,64.5
						c0,0,25.7,26.4,72.1,14.8s244.2-44.4,259.8-61.9C429.4,1615.8,440.5,1541.4,336.2,1562.6z"/>
					<path class="st43" d="M369,1830.8L538.8,1950l117.4-53.3L647,1876c0,0-69.1-6.3-97,18.1L462,1782.3L369,1830.8z"/>
					<path class="st44" d="M573.1,1835.7l-192.8,144.1c0,0-49.2,42.3-81.9,80.7l-35.9-23.3l96.1-101.4l67.3-86.3
						C425.9,1849.4,536.5,1811,573.1,1835.7z"/>
					<path class="st45" d="M591.8,1799.9c0,0-1,0.5-2.9,1.3C589.9,1800.7,590.9,1800.3,591.8,1799.9l-113.4-237
						c0,0-161.6,17.3-197.1,58.9l63.7,201.3l-9.5,56.3c0,0,176.2,88.9,272-44.6L591.8,1799.9z"/>
					<path class="st42" d="M486.7,1684c1.7-2.8,3.4-5.9,2.7-9.1c-1.2-6.2-9.4-7.6-15.6-7.4c-57.1,1.7-111.3,20.2-165.5,39.7
						l26.6,83.9c43.3-15.6,83.8-39.3,118.4-69.6C465.9,1710.4,477.9,1698.3,486.7,1684z"/>
					<path class="st33" d="M463.3,1695.3c16.3-10.3,31.4-25,35.2-43.9c-13.1-2.2-26.4-2.3-39.6-1.4c-53.5,4-104.7,25.4-156.8,37.1
						l17,53.7c16.7-4,33.3-7.9,50-11.9C401.6,1721.2,434.9,1713.2,463.3,1695.3z"/>
					<g>
						<g>
							<path class="st24" d="M530.8,1460.1c0,0,51.5-39.1,60.4,0c8.9,39.1-81.7,58.6-81.7,58.6L530.8,1460.1z"/>
							<path class="st24" d="M153.4,1460.1c0,0-51.5-39.1-60.4,0c-8.9,39.1,81.7,58.6,81.7,58.6L153.4,1460.1z"/>
							<path class="st18" d="M134.8,1373.1c0,0-30.2,280.6,207.8,273.5s206-273.5,206-273.5S252,1106.7,134.8,1373.1z"/>
						</g>
						<path class="st27" d="M269.1,1569.5c0,0,112.8,15.4,175.6-37C444.7,1532.5,372,1697,269.1,1569.5z"/>
						<path class="st28" d="M353.3,1593.5c-0.8,0.6-1.6,1.3-2.6,1.6c-1.5,0.4-2.9-0.3-4.3-0.8c-9.4-3.7-20.3-3.5-29.6,0.5
							c-4.6,2-8.9,5-12.4,8.6c38.2,26,70.7,13.7,94.7-7.5c-4.8-4.6-10.8-7.9-17.3-9.2C371.9,1584.6,361.2,1587.2,353.3,1593.5z"/>
						<path class="st29" d="M432,1555.7c8.2-13.2,12.7-23.2,12.7-23.2c-62.9,52.4-175.6,37-175.6,37c4,5,8,9.6,12,13.7
							C310.3,1586.5,369,1587.4,432,1555.7z"/>
						<path class="st29" d="M317.2,1610.7c27,12.9,50.8,7,70.3-6C364.1,1600.3,339.5,1602.4,317.2,1610.7z"/>
					</g>
					<path class="st18" d="M459.3,1618c0,0-169.6,71-305,72.8c-18.4,0.2-31.1,19-23.9,36c0.1,0.2,0.2,0.5,0.3,0.7
						c4.4,10,14.7,16.1,25.6,15.4c56.3-3.9,257-21.1,355.1-74.7C511.5,1668.2,524.6,1617.6,459.3,1618z"/>
					<path class="st24" d="M75.4,1630.6c0,0-26.2,9.1-21,15c5.2,5.9,7.3,17.6,22.8,5.4C92.7,1638.8,89.1,1629.6,75.4,1630.6z"/>
					<polygon class="st13" points="268.6,2030.7 178.4,2030.7 281.3,2100.2 298.4,2060.4 					"/>
					<path class="st13" d="M656.1,1896.7c0,0,58.3,33.8,57.7,31.2s-25.9-57-38.2-62.2c-12.3-5.2-28.6,10.4-28.6,10.4L656.1,1896.7z"
						/>
					<path class="st25" d="M480.6,1439.4c-80.2-31-103.2,38.8-103.2,38.8c64.4-55.2,124.8-25.9,124.8-25.9
						S492.7,1435.2,480.6,1439.4z"/>
					<path class="st25" d="M185.7,1444.5c-8.5-0.7-14.4,7.6-17.5,9.5l-4.3,5.7c0,0,57.8-33.9,126.4,16
						C290.3,1475.7,262.3,1408.7,185.7,1444.5z"/>
				</g>
			</g>
			<path class="st24" d="M316.7,1466.1c0,1.5-23,52-16.5,71c6.5,19,33.5,31.5,60.5,4c0,0-43.5,25.5-37-12.5
				S316.7,1466.1,316.7,1466.1z"/>
			<path class="st46" d="M134.4,1460c0,0,2.7-91.1,76-113.6c0,0-29.5,20.9-21.8,61.8c0,0,27.6-45.2,80.9-50.2
				c0,0-9.3,65.6,69.1,79.9c0,0-13.1-69.9,15.1-91.6c0,0-16,32,30.6,56.8c0,0,1.7-31.8,38.4-33.5l-12.7,33.5c0,0,43.9,21.3,89.1-19
				l-3.7,38c0,0,38.4,13.7,51.6-19l36.5,5l-9.2-30.2c0,0-5.7-40.1-16.2-56.8l25.3,10.5c0,0-19-50.3-44.2-61.8l24.1-15.2
				c0,0-32.2-16.2-64.3-12l47.9-31.4c0,0-114.5-34.5-156.3-12.6c0,0-98.4-66-173.8-56.5l49.1,36.6c0,0-72.2-28.3-149.6,17.8
				l50.3,12.6c0,0-47.1,10.5-90,71.2l54-13.6c0,0-46.6,30.4-54,87.9c0,0,36.7-24.1,54-30.4C130.4,1324.4,86.7,1409.6,134.4,1460z"/>
			<path class="st47" d="M465,1281.3c9.4-7.3,18.9-14.7,28.3-22c-22.3,0.3-44.5,3.8-65.9,10.2c7.1-8.2,14.2-16.3,21.2-24.5
				c-16.1,6-32.5,11.4-49.1,16c-5.7,1.6-11.5,3.1-17.4,2.4c-20.4-2.2-31.2-27.8-51.3-32.1c8.6,12.9,17.5,25.7,26.5,38.3
				c-25.5-7.8-51.3-14.8-77.2-21.1c13.7,8.5,27.5,16.9,41.2,25.4c-28.9-2.1-58.1,1.5-85.7,10.5c12.4,3.7,25.1,6.5,38,8.4
				c-35.5,2.8-70.3,14.3-100.5,33.2c17.2-6.9,35.9-9.9,54.3-8.8c-53.4,24.3-92.2,77.9-99,136.1c1.8,2.4,3.7,4.7,5.8,6.9
				c0,0,2.7-91.1,76-113.6c0,0-29.5,20.9-21.8,61.8c0,0,27.6-45.2,80.9-50.2c0,0-9.3,65.6,69.1,79.9c0,0-13.1-69.9,15.1-91.6
				c0,0-16,32,30.6,56.8c0,0,1.7-31.8,38.4-33.5l-12.7,33.5c0,0,43.9,21.3,89.1-19l-3.7,38c0,0,38.4,13.7,51.6-19l36.5,5l-9.2-30.2
				c0,0-5.7-40.1-16.2-56.8l25.3,10.5c0,0-2.6-6.8-7.1-16c-14.2-9.2-30.3-16.3-46.2-21.8C509.1,1286.6,487.2,1281,465,1281.3z"/>
			<path class="st45" d="M430.1,1618c-2.4,0.7-78.3,38.6-131.1,38.5c-52.8-0.2-108.6,10.1-113.2,32.8c0,0,22.3,32.1,5.7,50.9
				c0,0,21,38.3,66.4,23.4c45.4-14.9,240.3-62,254.7-80.6C526.9,1664.2,532.6,1589.3,430.1,1618z"/>
		</g>
	</g>
</g>
</svg>
