<?xml version="1.0" encoding="utf-8"?>
<!-- Generator: Adobe Illustrator 22.0.1, SVG Export Plug-In . SVG Version: 6.00 Build 0)  -->
<svg version="1.1" id="Layer_2" xmlns="http://www.w3.org/2000/svg" xmlns:xlink="http://www.w3.org/1999/xlink" x="0px" y="0px"
	 viewBox="0 0 2272 1872" style="enable-background:new 0 0 2272 1872;" xml:space="preserve">
<style type="text/css">
	.st0{clip-path:url(#SVGID_2_);fill:#9AFFDF;}
	.st1{clip-path:url(#SVGID_2_);fill:#83E5C5;}
	.st2{clip-path:url(#SVGID_2_);fill:#C7FFEC;}
	.st3{clip-path:url(#SVGID_2_);fill:#6ECEAE;}
	.st4{clip-path:url(#SVGID_2_);}
	.st5{fill:#79E2BC;}
	.st6{fill:#6ECEAE;}
	.st7{fill:#5DB593;}
	.st8{fill:#69C49E;}
	.st9{fill:#53A583;}
	.st10{fill:#4D997A;}
	.st11{fill:#6D5C42;}
	.st12{fill:#554B3B;}
	.st13{fill:#FFB531;}
	.st14{fill:#DB9837;}
	.st15{fill:#D18F26;}
	.st16{fill:#B24D4D;}
	.st17{clip-path:url(#SVGID_2_);fill:none;}
</style>
<g>
	<defs>
		<rect id="SVGID_1_" width="2272" height="1872"/>
	</defs>
	<clipPath id="SVGID_2_">
		<use xlink:href="#SVGID_1_"  style="overflow:visible;"/>
	</clipPath>
	<rect class="st0" width="2272" height="1872"/>
	<path class="st1" d="M852.1,241.8c13.4-3.9,30-14.4,24.8-27.4c-2.5-6.2-9.4-9.4-15.7-11.8c-53.4-20-111.3-23.5-168.3-25.1
		C464.1,171.4,232.8,194.2,8,151.4c-2.7-0.5-5.3-1-8-1.6v345.6c202.3-96,411.4-173.6,631.6-211.9
		C705.4,270.8,780.2,262.4,852.1,241.8z"/>
	<path class="st2" d="M0,0v37.2c18.9,10.9,42.2,15.4,64.2,18.7c476.9,72.2,963.7-26.8,1445,4.3c50.6,3.3,109.9,13.6,132.2,59.2
		c-58.3,48.7-134.2,69.9-208,87.6c-390.3,93.9-797.7,129.9-1168.1,284.7C172,530.7,79.9,578.6,0,640.3v151.6
		c238.1-9.5,473.7-69.5,708.6-116.1C1222.9,573.6,1747.1,534.1,2272,527.4V0H0z"/>
	<path class="st1" d="M1764.5,843C1239.2,1170.4,617,1356.9,0,1317.1V1872h2272V497.9C2102.3,611.7,1937.9,734.9,1764.5,843z"/>
	<polygon class="st3" points="1101.5,1389 946.6,1119.5 773.8,1389 845.2,1389 845.2,1399.9 845.2,1554.6 1041.6,1554.6 
		1041.6,1399.9 1041.6,1389 1044.6,1389 	"/>
	<polygon class="st3" points="1398.5,1434.3 1286,1238.5 1160.5,1434.3 1212.3,1434.3 1212.3,1442.2 1212.3,1554.6 1355,1554.6 
		1355,1442.2 1355,1434.3 1357.2,1434.3 	"/>
	<g class="st4">
		<g>
			<polygon class="st5" points="304.4,376.4 310.8,1550.5 345.7,1550.5 345.7,356.6 			"/>
			<polygon class="st5" points="792.8,461.9 799.2,1550.5 834.2,1550.5 834.2,443.5 			"/>
			<polygon class="st5" points="1822.2,347.3 1828.6,1550.5 1863.6,1550.5 1863.6,328.9 			"/>
			<polygon class="st6" points="131.1,480.4 194.2,1550.5 229.6,1550.5 168.1,569.3 			"/>
			<polygon class="st6" points="1154.4,553.8 1160.7,1550.5 1195.7,1550.5 1195.7,524.7 			"/>
			<polygon class="st6" points="2114.6,705.1 2120.9,1550.5 2155.9,1550.5 2155.9,673 			"/>
			<polygon class="st5" points="1984.1,737.8 1990.4,1550.5 2025.4,1550.5 2025.4,705.7 			"/>
			<path class="st6" d="M2241.2,389.5c0.7-2.6,0.7-5.2,1.7-7.6c2.7-6.7-6.3-12.6-11.8-9.1c-0.8,0.5-1.6,1.1-2.3,1.6
				c-0.9-1.1-1.9-2.1-2.9-3.2c-39.7-43.7-91.5-73.6-127.9-91c-34.2-16.4-87.1-38-144.7-48.3c-55.2-9.8-103.2-7.2-143.1,7.9
				c-4.7-3.9-10.7-0.1-11.3,4.7c-0.5,0.2-0.9,0.4-1.4,0.6c-55.3,25.8-115.2,67.6-178.6,111.8c-122.9,85.7-259.2,180.8-393.8,180.8
				c-28.8,0-57.6-4.4-86.1-14.1c-86.2-29.5-182.5-65.4-286.3-106.8c-180.3-71.9-375.5-92.2-564.3-58.7
				c-50.3,8.9-91.2,20.1-121.7,33.3c-39.6,17.1-62.9,37.7-71.2,63c-9.3,28.4,1.6,59.1,32.3,91.3c3,3.1,6,6.1,9.1,9.1
				c-3.5,0.8-7,1.6-10.5,2.3c-6.5,1.4-3.7,11.1,2.7,9.9c5.8-1.1,11.5-2.2,17.2-3.3c19.6,17.9,41,34,63.5,48.6
				c-1.6,0.6-3.1,1.2-4.7,1.8c-4.7,1.9-2.9,9.5,2.2,7.9c4-1.3,8-2.5,12-3.6c22.2,13.9,45.4,26.5,68.8,38.3c-0.3,3.6,3.5,7.4,7.6,5.1
				c0.4-0.2,0.8-0.5,1.3-0.7c30.5,15,61.3,28.5,90.7,41.5c143.5,63.2,303.5,114.8,475.7,153.4c184.8,41.4,363,62.3,530.3,62.3
				c13,0,25.8-0.1,38.7-0.4c90.6-1.8,179.8-10.5,265.3-25.9c0.8,0.3,1.6,0.5,2.4,0.7c2.9,0.8,4.9-0.4,6-2.3c3.5-0.6,7-1.3,10.5-2
				l6.2-1.2c17.5-3.4,35.1-6.8,52.7-10.5c0.6,0.6,1.2,1.1,1.8,1.7c5.1,5.2,12.5,9.5,19.5,5c4-2.6,3-8-1.3-9.6
				c-0.8-0.3-1.5-0.6-2.1-1c16.1-3.6,32.3-7.5,48.3-12c4.9,4.4,10.8,8.4,16.9,8.8c2.6,0.1,4.5-2.3,4.7-4.7c0.2-3.8-1.5-6.7-4-9.2
				c6.2-1.9,12.4-3.9,18.6-6c2.1,1.7,4.3,3.4,6.6,5c3.5,2.4,8.3-2.4,5.9-5.9c-0.7-0.9-1.3-1.8-2-2.8c12-4.3,23.8-9.1,35.5-14.4
				c1.5-0.7,3-1.3,4.4-2c7.5,2.8,16,3.8,19.6-4.4c0.8-1.8,1.3-3.5,1.3-5.2c16.1-7.4,32.6-15.2,49.1-23.4c0.8,0.2,1.6,0.4,2.4,0.6
				c5.8,1.2,12.3,1.4,16.7-3.2c1.4-1.4,2.4-3.1,2.9-5c0.3-0.9,0.9-6,0.1-0.7c0.2-1.1,0.2-2.1,0.2-3c14.9-7.7,29.8-15.8,44.6-24.3
				c1.1,0.3,2.2,0.6,3.4,0.9c10.2,2.9,23.1,5.1,27.3-7.8c1.2-3.8,0.1-7.4-2.2-10.1c17.8-11.1,35.3-22.9,52.2-35.6
				c4.2-0.5,8.2-1.8,11.2-4.9c2.1-2.1,3.2-4.3,3.7-6.6c5.2-4.1,10.3-8.3,15.4-12.6c62.7-53.3,96.5-106.6,103.3-162.8
				C2285.7,475.3,2272.6,431,2241.2,389.5z M2195.7,612.7c-2.6,0.7-5.3,1.4-8,2c-11.3,2.8-22.7,5-34.1,7.5
				c-4.1,0.9-8.3,1.8-12.4,2.6c7.5-10.5,13.5-21,18.2-31.6c10.8-2.9,21.5-6,32.1-9.5c10.2-3.3,20-7.6,29.9-11.5
				c1.1-0.4,2.2-0.9,3.3-1.3C2217.4,584.8,2207.7,598.7,2195.7,612.7z M1978.8,764.3c-3.1-1.4-6.3-2.9-9.4-4.4
				c-2.5-1.2-5-2.4-7.6-3.5c11.1-5.3,21.7-10.7,31.9-16.1c5.9,2.6,12,5.1,18,7.3C2000.7,753.3,1989.7,758.9,1978.8,764.3z
				 M1914.5,794.5c-2.8-1.8-5.7-3.6-8.5-5.5c-2.4-1.6-4.7-3.1-7.1-4.7c4.9-2,9.8-4,14.6-6.1c7.8-3.3,15.4-6.7,22.9-10.1
				c3.6,1.7,7.2,3.5,10.8,5.3c2,1,4,2,6,3.1C1940.1,782.8,1927.2,788.7,1914.5,794.5z M1826.3,826c-4.2-3.8-8.5-7.6-12.7-11.4
				c7.8-2.4,15.5-4.8,23.1-7.4c3.7,4.2,7.5,8.4,11.3,12.5C1840.9,822,1833.6,824.1,1826.3,826z M1753.6,842.7
				c-3.8-2.8-7.6-5.8-11.3-8.7c19.6-4.7,38.7-9.7,57.5-15.2c3.9,3.7,7.8,7.4,11.6,11.1C1792.5,834.6,1773.2,838.8,1753.6,842.7z
				 M1434.3,840.9c-154.8,4.2-321.7-10.6-496-43.8C750.5,761.2,606,713.8,517.8,680.3c-86.3-32.8-157.6-67.1-203.8-97.8
				c2.8-1.6,5.2-3.4,7.2-6.1c3-4.1-1.2-8.7-5.3-9.2c-4.9-0.5-9.6,2-13.8,4.1c-0.8,0.4-1.7,0.8-2.5,1.3c-8-5.9-15-11.5-20.9-17
				c-5-4.7-10.3-10.2-14.4-16c4.3-1.7,8.5-3.6,12.7-5.7c3.3-1.7,4.4-7.4,1.3-9.9c-5.5-4.3-10.6-3.5-16.6-0.7
				c-1.5,0.7-2.9,1.3-4.4,1.9c-0.7-3.2-0.7-6.3,0.2-9.2c2.6-8.4,15.9-26.8,80.5-43.7c1.7,1.2,3.4,2.4,5.1,3.6
				c5.7,4,11.2-1.9,10.8-7.5c14.5-3.3,31.1-6.5,50.3-9.5c35.4-5.6,71-9.2,106.7-10.9c2.1,1.7,4.3,3.4,6.5,5c4.7,3.4,9.5-0.9,9.9-5.6
				c10.1-0.3,20.3-0.5,30.4-0.5c112.6,0,225.2,19.2,331.7,57c92.8,32.9,179,61.5,256.2,85c27.8,8.5,56.6,12.7,86.6,12.7
				c46.9,0,96.8-10.3,150.7-31.1c76-29.2,147.9-73.9,217.5-117.1c55.2-34.3,107.4-66.6,154.1-86c21.9-9.1,53.1-12.5,90.4-9.8
				c17,1.2,34.7,3.7,52.6,7.2c1.3,0.6,2.6,0.8,4,0.8c19.9,4.1,40.1,9.6,59.9,16.4c32.4,11,61.6,24.5,86.5,39.6
				c0.1,6.6,7.9,10.4,13.8,8.8c34.3,23.1,58.8,49.5,70.2,76.5c5.2,12.4,7.7,25,7.3,37.8c-1.9,1.1-3.9,2.2-5.8,3.3
				c-6.8,3.9-2.6,13.4,3.8,13.2c-1.5,7.1-3.9,14.2-7.1,21.3c-2.4,0.5-4.8,0.9-7.2,1.5c-8.3,1.9-7.6,11.8-2,15.6
				c-3.4,5.3-7.2,10.6-11.5,15.9c-4.2,5.2-8.9,10.5-14,15.7c-3.8,0.2-7.6,0.3-11.4,0.3c-8.5,0-10,10.9-4.4,14.7
				c-15.9,14-34.9,28-57,41.8c-3.5-0.1-7-0.4-10.5-1.6c-6.5-2.1-11.2,7.9-5.5,11.2c-8.8,5.2-18.1,10.3-27.8,15.5
				c-7.8-2.9-15.6-5.6-23.9-7.1c-9.2-1.7-13.3,12.1-3.9,14.2c2.7,0.6,5.3,1.8,7.9,3.1c-12.1,6-24.7,12-37.9,17.9
				c-4.2-1.5-8.4-3-12.7-4.5c-4.6-1.7-9.9,1.9-11.1,6.3c-0.8,3-0.1,5.7,1.6,7.8c-10.3,4.4-20.8,8.6-31.4,12.6
				c-1.6-1.2-3.2-2.3-4.7-3.5c-5.7-4.5-12.2-8.8-18.7-2.9c-3,2.8-2.1,7.9,1.3,9.9c1.5,0.9,2.3,2.1,3.2,3.4
				c-20.1,7.2-40.7,13.8-61.9,19.9c-1.7-1.6-3.4-3.3-5.1-4.9c-5.2-5.1-13,2.8-8,8c0.2,0.2,0.3,0.3,0.5,0.5
				C1672.8,821.7,1559,837.6,1434.3,840.9z M1476.8,878.5c-1-1-2-2.1-3-3.1c-1.5-1.6-3.2-3.2-4.9-4.7c24.8-1.1,49.1-2.8,72.9-4.9
				c3,2.6,6,5.2,9.1,7.7C1526.5,875.7,1501.8,877.3,1476.8,878.5z M1412.6,880.2c-2.7-2.6-5.3-5.1-7.9-7.7
				c10.2-0.1,20.4-0.3,30.5-0.6c5.6-0.2,11.3-0.3,16.9-0.5c2.4,2.7,5,5.2,7.5,7.8c-9.1,0.3-18.3,0.6-27.5,0.8
				C1425.6,880.1,1419.1,880.2,1412.6,880.2z M1342.7,879.7c-1.4-2.5-2.7-5-4-7.5c14.6,0.3,29.2,0.5,43.7,0.5c1.2,0,2.4,0,3.6,0
				c2.5,2.5,5,5.1,7.4,7.7C1376.6,880.3,1359.7,880.1,1342.7,879.7z M1234.4,874.1c-1.5-2.3-2.9-4.7-4.3-7c32.2,2.3,64,3.9,95.4,4.8
				c1.1,2.4,2.2,4.9,3.4,7.4C1297.7,878.3,1266.2,876.5,1234.4,874.1z M269,603.5c4.4-1.7,8.7-3.5,12.9-5.5
				c13,9.5,28.3,19.3,45.6,29.3c-1.7,1.3-3.3,2.6-5,3.9C304.5,622.5,286.6,613.3,269,603.5z M409.4,382c19.2,11.6,37.9,24,56.7,36.3
				c0.7,0.5,1.5,0.9,2.2,1.4c-15,1.3-30.1,3-45.1,5c-0.1,0-0.2-0.1-0.2-0.1c-4-2.1-7.9-4.1-12-5.9c-11.2-5-22.3-10-33.2-15.7
				c-9.7-5.1-19.3-10.3-29-15.6C368.9,385,389.2,383.2,409.4,382z M612,390.9c3,3.3,6,6.5,9.4,9.4c6.6,5.8,13.6,11.3,20.6,16.5
				c1.2,0.9,2.5,1.8,3.7,2.7c-18.8-1.6-37.6-2.7-56.4-3.3c-3.7-2.8-9-4-13-5.2c-8.6-2.4-16.3-7.8-24.2-11.7
				c-11.7-5.9-23.3-12-35-17.8C548.9,383.2,580.5,386.3,612,390.9z M740.5,418.6c1.5,3.1,3.1,6.2,4.9,9.3c1.1,1.9,2.2,3.9,3.2,5.9
				c-24.5-4.6-49.2-8.4-73.9-11.2c-7.6-6.7-17-11.8-24.9-17.1c-5.3-3.5-10.4-7.2-15.5-10.9C670,400.6,705.4,408.6,740.5,418.6z
				 M764.4,436.9c-2.8-4.3-5-9.1-7.7-13.5c23.5,7.1,46.8,15.1,69.9,24c-0.1,1.5-0.1,2.9-0.1,4.4
				C805.9,446.1,785.2,441.1,764.4,436.9z M1744.3,318.1c5,4,10.1,8,15.1,12.1c0.8,0.6,1.6,1.3,2.5,2.1c-6.8,1.8-13.2,3.9-19.1,6.3
				c-13.4,5.6-27.1,12.1-41.1,19.3c-2.7-2.2-5.4-4.3-8.2-6.4C1710.8,339.8,1727.7,328.5,1744.3,318.1z M2112.5,374.8
				c-0.4-14.8-1.6-29.9-1-44.8c10.1,5.7,20.6,12.2,31.1,19.4c-0.3,1.8-0.6,3.5-0.9,5.3c-1.7,11.4-4.3,22.5-5.8,33.9
				c-1.6,12.4-2.1,24.9-3.5,37.4c-0.7,6.1-3.2,13.1-4.4,19.8c-5.2-5.6-10.9-11.2-17-16.6c0.8-7.8,2.2-15.6,2.4-23.5
				C2113.8,395.4,2112.8,385.1,2112.5,374.8z M2217.7,422c14,21,22.3,42.6,24.9,64.7c-3.4,1.1-6.6,2.9-9.7,4.5
				c-4.9,2.6-9.6,5.4-14.3,8.3c-9.2,5.6-18.3,11.5-27.7,16.9c-7,4-14.1,7.9-21.2,11.7c-1.4-11.2-4.4-22.3-9-33.3
				c-1.6-3.7-3.3-7.3-5.2-11c3.5-2.6,6.9-5.6,10.2-8.8c9.4-9.3,17.9-19.4,27.4-28.6C2201.3,438.3,2209.8,430.4,2217.7,422z
				 M1860.8,815.7c-4.1-4.1-8.1-8.3-12.1-12.5c8.7-3,17.3-6.1,25.9-9.3c0.9,0.7,1.9,1.4,2.8,2.1c4,3.1,8.1,6.2,12.2,9.2
				C1880.1,809,1870.5,812.5,1860.8,815.7z M2027.1,729.3c-3-0.9-6-1.7-9-2.7c11.2-6.5,21.9-13,31.9-19.6c9.3,1.2,18.6,2,28,2.4
				c-12.7,8-25.5,15.6-38.5,22.9C2035.4,731.5,2031.3,730.5,2027.1,729.3z M2152.2,655.5c-13.1,11.1-26.8,21.7-40.9,31.7
				c-8.8,0.4-17.5,0.7-26.3,1c-2.8,0.1-5.6,0.2-8.4,0.2c18.4-13.9,34.2-27.9,47.2-42.1c12.5-0.8,25-2.1,37.4-4.1
				c2.4-0.4,4.8-0.8,7.2-1.1C2163.2,645.9,2157.9,650.7,2152.2,655.5z M2242.4,517.1c-0.9,7.8-2.6,15.6-4.9,23.4
				c-0.8,0.2-1.5,0.5-2.2,0.8c-17.3,8.3-35,16.1-53,22.9c-4.9,1.9-9.9,3.5-14.9,5.1c0.5-2.1,0.9-4.2,1.3-6.3
				c1-5.7,1.6-11.4,1.7-17.1c9.7-4.3,19.4-8.4,28.9-13.1c9.4-4.6,18.7-9.7,27.9-14.8c4.6-2.5,9.1-5,13.8-7.3c0.7-0.3,1.4-0.7,2.1-1
				C2242.9,512.2,2242.7,514.6,2242.4,517.1z M2197.8,396.7c2.4,2.7,4.7,5.3,7,8c-8,9-16.7,17.2-25.1,25.8
				c-8.9,9.1-16.9,18.9-25.6,28.2c-2.7,2.9-5.5,6-8.4,8.9c-0.9-1.3-1.8-2.7-2.8-4c0.9-0.9,1.6-2,2.1-3.2c1.7-4.7,2.1-10.2,3.3-15.1
				c1.4-5.8,2.3-11.6,2.8-17.6c1-11.5,0.9-23.1,1.9-34.6c0.9-10.5,2.7-20.9,3.7-31.4c0.1-0.7,0.1-1.5,0.2-2.2
				C2171.2,370.5,2185.2,382.8,2197.8,396.7z M2096.2,321.6c-2.4,16.9-2.2,34.1-2.3,51.2c-0.1,10.3,0.5,20.7,0,31
				c-0.1,3.5-0.7,6.9-1.4,10.3c-2-1.5-4.1-3-6.2-4.5c-8-5.7-16.5-11.2-25.4-16.5c-1.3-3.1-2.6-6.1-3.9-9.2
				c-5.9-13.6-11.9-27.1-15.5-41.5c-3.7-14.7-6.5-29.8-11.9-44.1c-0.9-2.3-1.7-4.7-2.6-7.2c21,7.7,39.7,15.9,54.6,23
				C2086.2,316.6,2091.1,319,2096.2,321.6z M2012,286.1c0.2,1.4,0.3,2.7,0.5,3.9c0.9,6.1,2.7,12.1,4,18.1c2.9,14,4.8,28.2,8,42.1
				c2.1,9.5,5.3,18.8,8.7,27.9c-8.5-4.2-17.3-8.2-26.3-12c-3.7-8.3-10.1-16.1-14.7-23c-9-13.5-18.8-26.4-28.9-39.2
				c-9.5-12.1-18.9-24.4-28.4-36.6c3.9,0.6,7.8,1.2,11.7,1.9C1969.5,273.3,1991.6,279.3,2012,286.1z M1912.4,264.8
				c1.5,2.1,3,4.3,4.4,6.4c9.1,13.5,18.1,26.9,27.6,40.1c9.2,12.7,18.3,25.4,26.8,38.5c0.7,1.1,1.5,2.3,2.2,3.4
				c-0.7-0.2-1.3-0.5-2-0.7c-23.1-7.9-46.6-14.1-69.7-18.6c-0.9-1.2-1.7-2.4-2.4-3.5c-7.5-11-15.7-21.3-25-30.9
				c-10.2-10.4-20.8-20.4-31.5-30.2C1863.6,264.4,1886.8,262.9,1912.4,264.8z M1813.7,279.5c3.3-1.5,6.7-3,10.1-4.3
				c1.7,1.9,3.4,3.8,5.2,5.6c9.3,10,18.9,19.7,28.3,29.6c5.7,6,11.1,12.2,16,18.8c-8.8-1.2-17.5-2.1-26.1-2.7
				c-22.8-1.6-43.9-1.1-62.7,1.4c-0.4-0.3-0.8-0.6-1.2-0.9c-4.9-3.5-9.6-7.2-14.4-10.8c-3.2-2.4-6.5-4.9-9.7-7.3
				C1778,297.7,1796.2,287.7,1813.7,279.5z M1640.8,388c13.4-9.4,26.7-18.6,39.8-27.6c2.2,1.7,4.4,3.4,6.7,5.2
				c-31.7,17.2-64.7,37.6-99,58.8C1605.9,412.3,1623.4,400.1,1640.8,388z M871.4,465c-11.1-3.6-22.2-6.9-33.4-10.1c0-1,0-2.1,0-3.1
				c0.3,0.1,0.5,0.2,0.8,0.3C849.7,456.4,860.6,460.7,871.4,465z M467.1,380.3c8.2,0,16.5,0.1,24.7,0.3c0.3,0.3,0.7,0.5,1.1,0.7
				c8.9,4.7,17.2,10.2,25.8,15.6c8,5,16.3,9.4,24.6,14c3,1.6,5.9,3.3,8.9,5c-19,0.1-37.9,0.7-56.8,1.9c-6.8-3.8-13.8-7.4-20.5-11.3
				c-10.6-6-20.9-12.3-31.7-18c-4.8-2.5-9.5-4.9-14.3-7.4C441.6,380.6,454.4,380.3,467.1,380.3z M295.1,395.4
				c10.8-1.9,21.6-3.6,32.5-5.2c4.3,3.1,9,5.8,13.5,8.5c11.2,6.9,22.4,13.9,33.9,20.1c6.6,3.6,13.4,6.8,20.2,10.1
				c-26.3,4.3-49.6,9.1-69.7,14.6c-0.3-0.2-0.5-0.3-0.8-0.5c-11.3-7.2-23.3-13-35.1-19.2c-11.8-6.2-23.5-12.9-34.7-20.3
				C267.5,400.6,280.9,397.9,295.1,395.4z M181.9,426.1c15.6-6.8,34.5-13,56.5-18.6c12.6,10.3,25.8,19.9,40.3,28
				c8.6,4.8,17.4,9.3,25.9,14.3c-5.1,1.7-9.9,3.4-14.5,5.2c-14.2,5.5-25.9,11.6-35.3,18.2c-0.1-0.1-0.2-0.2-0.4-0.3
				c-9-5.9-19.3-6.6-29.7-5.9c-12.3,0.9-24.6,1.2-36.9,1.5c-19,0.5-37.9,1-56.8,1.3c0.2-1.3,0.5-2.5,0.9-3.7
				C136.3,452.1,153.6,438.3,181.9,426.1z M155.5,519.4c-14-14.6-22.1-27.7-24.3-39c19.2,0.4,38.4,0.9,57.6,1.4
				c12,0.3,23.9,0.6,35.9,0.4c5.6-0.1,10.8,0.1,16.2,1.7c0.3,0.1,0.6,0.2,0.9,0.3c-6.8,7-11.4,14.6-13.9,22.7
				c-2.6,8.7-2.8,17.5-0.5,26.6c-6.8,1.5-13.6,3-20.4,4.7c-8.4,2-16.8,4.1-25.1,6.1C172.5,536.3,163.7,528,155.5,519.4z
				 M194.2,554.4c4.5-0.9,8.9-1.8,13.4-2.6c8.3-1.6,16.7-3.2,25.1-4.7c5.3,10.2,13.6,20.6,24.9,31.1c3.5,3.3,7.4,6.6,11.5,10
				c-2.5,1.2-5.1,2.4-7.6,3.6c-2.4,1.1-4.9,2.2-7.4,3.2C233.1,582.5,212.9,569.1,194.2,554.4z M338.6,635.7c0.6-0.4,1.1-0.9,1.7-1.3
				c11.1,6.1,23,12.3,35.5,18.5c-0.7,0.6-1.4,1.2-2.2,1.8c-12.5-5.6-25-11.3-37.6-17.2C336.8,637,337.7,636.4,338.6,635.7z
				 M403.4,667.9c-6.2-2.7-12.4-5.5-18.7-8.2c0.6-0.5,1.3-1.1,1.9-1.5c35.2,16.9,75.6,34.1,120.1,51
				c161.9,61.5,320.9,98.3,425.7,118.3c96.4,18.4,190.5,31.2,281.7,38.3c1.1,2.3,2.3,4.6,3.5,6.9c-111.6-9.3-227.2-27.3-345.6-53.8
				C702.3,781,544.6,730.1,403.4,667.9z M1574,871.3c-3.3-1.8-6.8-3.5-10.1-5.5c-0.9-0.6-1.9-1.2-2.8-1.8c26.5-2.7,52.4-6,77.8-9.9
				c2.5,2.7,5.1,5.4,7.9,7.9C1622.8,865.6,1598.5,868.7,1574,871.3z M1716,850.1l-6.3,1.2c-15.1,2.9-30.2,5.6-45.5,8
				c-0.4-0.3-0.9-0.6-1.3-0.9c-3-2.1-5.8-4.4-8.5-6.8c24.6-4.1,48.7-8.7,72.1-14c3.3,2.9,6.6,5.7,9.9,8.5
				C1729.6,847.4,1722.9,848.7,1716,850.1z"/>
			<polygon class="st6" points="510.8,447.9 517.2,1550.5 552.1,1550.5 552.1,415.8 			"/>
		</g>
		<g>
			<polygon class="st7" points="1917.4,201.7 1901.8,334 1971.6,363.8 2004.4,256.1 			"/>
			<path class="st5" d="M1893,196.7c-52.9-2.4-112.5,2.2-179.6,15.8l-19.9,91.1l76.7,42.7c55.2-9.5,115.6-8.5,177,12.5l32.8-107.7
				L1893,196.7z"/>
			<polygon class="st8" points="2113.7,367.3 2096.2,451.2 2224.8,467.7 2238.8,375.7 			"/>
			<path class="st5" d="M2238.8,375.7c-50.1-85.2-150.1-166.2-321.4-174l87,54.4l-32.8,107.7c21.3,7.3,42.7,16.9,64.1,29.3
				c0,0,39.9,24.4,63.6,65.1c5.2-32.5,12.3-80.3,12.3-80.3S2191.8,372.1,2238.8,375.7z"/>
			<path class="st5" d="M2271.5,490.2c-5-32.2-17.3-68.8-38.4-104.7c-47-3.6-127.2,2.1-127.2,2.1s-7.1,47.9-12.3,80.3
				c12.4,21.2,20.3,46.8,15.9,75.7l116.9,10.6l-16.3,88C2248.1,592.2,2278.7,535.9,2271.5,490.2z"/>
		</g>
		<polyline class="st5" points="1700.3,208.9 1787.1,263.5 1766.5,363.2 		"/>
		<polygon class="st8" points="1727.6,235 1732.1,216.6 1882.3,201.7 1956.4,250 1787.1,263.5 		"/>
		<polygon class="st7" points="1712.5,216.6 1693.4,303.6 1770,346.2 1787.1,263.5 		"/>
		<g>
			<path class="st7" d="M1537,377.4c56-3.4,80.7-99.7,216.6-113.9V262l-56.7-32.5c-65.6,22.9-136.6,57.4-212.9,106.1
				C1483.9,335.6,1478.3,381,1537,377.4z"/>
			<path class="st5" d="M1537,377.4c-58.7,3.5-53.1-41.8-53.1-41.8c-5.7,3.6-24.1,50.2-37.7,86.3c-8.8,23.3,3.2,49.3,26.6,57.7h0
				c14.3,5.1,30.3,2.6,42.3-6.7c37.3-28.9,127.6-90.6,238.4-109.7v-99.7C1617.7,277.7,1593,374,1537,377.4z"/>
		</g>
		<path class="st8" d="M1935,216.6c0,0,163.7-8.5,283.4,146.5l-106.5-5.2c0,0-23.9-71.3-103.1-102.8L1935,216.6z"/>
		<polygon class="st7" points="2109.5,543.7 2095.6,631 2210.2,642.3 2249.6,553.1 		"/>
		<path class="st8" d="M2122.5,405.4c0,0,38.4,49.7,12.7,129.8l114.3,4.3c0,0,7.4-99.7-17.9-138.3L2122.5,405.4z"/>
		<path class="st7" d="M2232.5,402.6c-0.3-0.5-0.6-1-0.9-1.5l-109.1,4.2c0,0,20,25.8,21.5,70.3l80.8,6.6
			C2224.8,482.3,2230.6,441.2,2232.5,402.6z"/>
	</g>
	<g class="st4">
		<rect x="414" y="1139.6" class="st9" width="463.4" height="420.4"/>
		<rect x="414" y="1139.6" class="st10" width="463.4" height="55.3"/>
		<rect x="753.8" y="1219.1" class="st10" width="112.7" height="233.5"/>
		<g>
			<polygon class="st7" points="363.2,1169.2 638.2,842.7 928.3,1169.2 			"/>
			<polygon class="st6" points="636,845.8 407,1169.2 493.7,1169.2 635.3,849.1 			"/>
			<polygon class="st6" points="637.6,844.1 637.4,844.5 773.9,1169.2 858.7,1169.2 			"/>
			<polygon class="st6" points="635.3,849.1 571.9,1169.2 690.9,1169.2 637,845.3 			"/>
		</g>
	</g>
	<g class="st4">
		<rect x="-1.3" y="913.5" class="st7" width="700.1" height="635"/>
		<rect x="-1.3" y="913.5" class="st10" width="700.1" height="83.5"/>
		<rect x="512" y="1033.6" class="st10" width="170.2" height="352.8"/>
		<g>
			<polygon class="st7" points="-78.1,958.2 337.3,465 775.6,958.2 			"/>
			<polygon class="st6" points="334.1,469.6 -11.9,958.2 119.1,958.2 333.1,474.6 			"/>
			<polygon class="st6" points="336.4,467.1 336.1,467.7 542.4,958.2 670.5,958.2 			"/>
			<polygon class="st6" points="333.1,474.6 237.2,958.2 417,958.2 335.6,468.8 			"/>
		</g>
	</g>
	<g class="st4">
		
			<rect x="1329.4" y="1139.6" transform="matrix(-1 -4.488955e-11 4.488955e-11 -1 3122.269 2699.5896)" class="st9" width="463.4" height="420.4"/>
		
			<rect x="1329.4" y="1139.6" transform="matrix(-1 -4.489710e-11 4.489710e-11 -1 3122.269 2334.5161)" class="st10" width="463.4" height="55.3"/>
		
			<rect x="1340.4" y="1219.1" transform="matrix(-1 -4.486912e-11 4.486912e-11 -1 2793.5237 2671.802)" class="st10" width="112.7" height="233.5"/>
		<g>
			<polygon class="st7" points="1843.7,1169.2 1568.7,842.7 1278.6,1169.2 			"/>
			<polygon class="st6" points="1570.9,845.8 1799.9,1169.2 1713.2,1169.2 1571.5,849.1 			"/>
			<polygon class="st6" points="1569.3,844.1 1569.5,844.5 1433,1169.2 1348.1,1169.2 			"/>
			<polygon class="st6" points="1571.5,849.1 1635,1169.2 1516,1169.2 1569.8,845.3 			"/>
		</g>
	</g>
	<g class="st4">
		
			<rect x="1582.3" y="913.5" transform="matrix(-1 -4.489665e-11 4.489665e-11 -1 3864.7463 2461.9536)" class="st7" width="700.1" height="635"/>
		
			<rect x="1582.3" y="913.5" transform="matrix(-1 -4.489665e-11 4.489665e-11 -1 3864.7463 1910.4575)" class="st10" width="700.1" height="83.5"/>
		
			<rect x="1599" y="1033.6" transform="matrix(-1 -4.490065e-11 4.490065e-11 -1 3368.1292 2419.9766)" class="st10" width="170.2" height="352.8"/>
		<g>
			<polygon class="st7" points="2359.2,958.2 1943.8,465 1505.5,958.2 			"/>
			<polygon class="st6" points="1947.1,469.6 2293,958.2 2162.1,958.2 1948.1,474.6 			"/>
			<polygon class="st6" points="1944.7,467.1 1945,467.7 1738.7,958.2 1610.6,958.2 			"/>
			<polygon class="st6" points="1948.1,474.6 2043.9,958.2 1864.1,958.2 1945.5,468.8 			"/>
		</g>
	</g>
	<g class="st4">
		<rect y="1550.5" class="st11" width="2272" height="321.5"/>
		<rect y="1550.5" class="st12" width="2272" height="75.4"/>
		<path class="st12" d="M1714.9,1710.7c-7.6-0.8-17.3-1-25.8-0.4c-28.8,1.9-58.3,3.6-88.7,5.1l-4.4-4.8l-4.5-4.9l0,0l-102-111.2
			c-1-1.1-7.1-2-14.2-2c-8.5,0-15.2,1.2-14.2,2.6l78.2,113.3l0,0l6.6,9.5c-78.6,3.3-161.8,5.5-248.6,6.6
			c-113.6,1.4-233.8,0.9-357-1.6c-91.3-1.8-170.7-4.4-231.4-6.8l83.5-121c0.9-1.4-5.7-2.6-14.2-2.6h0c-7.1,0-13.1,0.8-14.2,2
			l-102,111.2h0l-7.4,8.1c-45.9-2-72.3-3.5-72.9-3.6c-3-0.2-6.2-0.3-9.3-0.3c-5.6,0-11.2,0.3-15.9,0.8c-7.3,0.8-11.7,2.2-11.7,3.6
			v36.3c0,1.6,5.2,3,13.6,3.8c134.8,12.9,279.4,20.9,429.9,23.8c120.3,2.3,244.5,1.5,369.2-2.6c110.7-3.6,201.4-9.2,257.9-13.2
			c61.7-4.4,97-7.9,98.5-8c8.1-0.8,13.1-2.2,13.1-3.8v-36.3C1727.1,1712.9,1722.5,1711.5,1714.9,1710.7z"/>
		<g>
			<g>
				<path class="st13" d="M1524.9,1097.1H2272v38c0,0-762.5,9-761.5,0C1511.5,1126.1,1524.9,1097.1,1524.9,1097.1z"/>
				<path class="st14" d="M1572.8,1118.1l3.9-21h-51.8c0,0-13.4,29-14.4,38s761.5,0,761.5,0v-17H1572.8z"/>
			</g>
			<g>
				<path class="st13" d="M1524.9,1210H2272v38c0,0-762.5,9-761.5,0C1511.5,1239,1524.9,1210,1524.9,1210z"/>
				<path class="st14" d="M1559.5,1231l3.9-21h-38.4c0,0-13.4,29-14.4,38c-1,9,761.5,0,761.5,0v-17H1559.5z"/>
			</g>
			<g>
				<path class="st13" d="M1498.5,1380.3H2272v38c0,0-789,9-788,0C1485.1,1409.2,1498.5,1380.3,1498.5,1380.3z"/>
				<path class="st14" d="M1533,1401.3l3.9-21h-38.4c0,0-13.4,29-14.4,38c-1,9,788,0,788,0v-17H1533z"/>
			</g>
			<path class="st13" d="M1728.8,1059.3L1728.8,1059.3c-10.9-4.3-22.9,2.8-24.2,14.5l-56.8,509.3c-0.6,5,3.4,9.4,8.4,9.4
				c4.2,0,7.8-3.1,8.4-7.2l75-506.9C1740.9,1070.2,1736.4,1062.3,1728.8,1059.3z"/>
			<path class="st13" d="M1900.4,1057.5L1900.4,1057.5c-11.1-3.6-22.6,4.5-23.1,16.2l-20.3,512c-0.2,5.1,4,9.2,9.1,8.8
				c4.2-0.3,7.5-3.6,7.9-7.8l38.6-511C1913.3,1067.5,1908.3,1059.9,1900.4,1057.5z"/>
			<path class="st13" d="M2082.1,1057.5L2082.1,1057.5c-11.1-3.6-22.6,4.5-23.1,16.2l-20.3,512c-0.2,5.1,4,9.2,9.1,8.8
				c4.2-0.3,7.5-3.6,7.9-7.8l38.6-511C2095,1067.5,2089.9,1059.9,2082.1,1057.5z"/>
			<path class="st13" d="M2209.3,1057.5L2209.3,1057.5c-11.1-3.6-22.6,4.5-23.1,16.2l-20.3,512c-0.2,5.1,4,9.2,9.1,8.8
				c4.2-0.3,7.5-3.6,7.9-7.8l38.6-511C2222.2,1067.5,2217.1,1059.9,2209.3,1057.5z"/>
		</g>
		<g>
			<g>
				<path class="st13" d="M747.4,1119.5H0.3v38c0,0,762.5,9,761.5,0S747.4,1119.5,747.4,1119.5z"/>
				<path class="st14" d="M699.5,1140.5l-3.9-21h51.8c0,0,13.4,29,14.4,38c1,9-761.5,0-761.5,0v-17H699.5z"/>
			</g>
			<g>
				<path class="st13" d="M747.4,1232.3H0.3v38c0,0,762.5,9,761.5,0S747.4,1232.3,747.4,1232.3z"/>
				<path class="st14" d="M712.8,1253.3l-3.9-21h38.4c0,0,13.4,29,14.4,38c1,9-761.5,0-761.5,0v-17H712.8z"/>
			</g>
			<g>
				<path class="st13" d="M773.8,1402.6H0.3v38c0,0,789,9,788,0C787.2,1431.6,773.8,1402.6,773.8,1402.6z"/>
				<path class="st14" d="M739.3,1423.6l-3.9-21h38.4c0,0,13.4,29,14.4,38c1,9-788,0-788,0v-17H739.3z"/>
			</g>
			<path class="st13" d="M543.5,1081.6L543.5,1081.6c10.9-4.3,22.9,2.8,24.2,14.5l56.8,509.3c0.6,5-3.4,9.4-8.4,9.4
				c-4.2,0-7.8-3.1-8.4-7.2l-75-506.9C531.4,1092.5,535.9,1084.7,543.5,1081.6z"/>
			<path class="st13" d="M371.8,1079.8L371.8,1079.8c11.1-3.6,22.6,4.5,23.1,16.2l20.3,512c0.2,5.1-4,9.2-9.1,8.8
				c-4.2-0.3-7.5-3.6-7.9-7.8l-38.6-511C359,1089.8,364,1082.3,371.8,1079.8z"/>
			<path class="st13" d="M190.1,1079.8L190.1,1079.8c11.1-3.6,22.6,4.5,23.1,16.2l20.3,512c0.2,5.1-4,9.2-9.1,8.8
				c-4.2-0.3-7.5-3.6-7.9-7.8l-38.6-511C177.3,1089.8,182.3,1082.3,190.1,1079.8z"/>
			<path class="st13" d="M63,1079.8L63,1079.8c11.1-3.6,22.6,4.5,23.1,16.2l20.3,512c0.2,5.1-4,9.2-9.1,8.8
				c-4.2-0.3-7.5-3.6-7.9-7.8l-38.6-511C50.1,1089.8,55.2,1082.3,63,1079.8z"/>
		</g>
		<g>
			<path class="st13" d="M813.4,1576.5l-95.1-898.8L663,701.1l123.5,879.2c1,7,6.7,12.2,13.5,12.2h0
				C808,1592.5,814.3,1585,813.4,1576.5z"/>
			<g>
				<path class="st15" d="M718.3,677.7L663,701.1l26.7,190.3c14.4-6.8,31-12.9,49.5-16.7L718.3,677.7z"/>
			</g>
			<path class="st13" d="M1543.1,677.7l-95.1,898.8c-0.9,8.5,5.4,15.9,13.5,15.9l0,0c6.7,0,12.5-5.2,13.5-12.2l123.5-879.2
				L1543.1,677.7z"/>
			<g>
				<path class="st15" d="M1543.1,677.7l55.4,23.3l-26.7,190.3c-14.4-6.8-31-12.9-49.5-16.7L1543.1,677.7z"/>
			</g>
			<g>
				<g>
					<path class="st13" d="M604.7,864.9c-5.3,0-10.6-1.7-15.1-5c-7-5.2-11.1-13.6-11.1-22.6V612.7c0-9.8,4.9-18.8,12.9-23.8
						c127.9-79.7,265.1-129.3,408-147.4c114.2-14.5,232-9,350.3,16.3c105.1,22.5,191.1,56.8,244.8,81.7
						c58.6,27.1,92.1,48.8,93.5,49.7c7.7,5,12.4,13.9,12.4,23.5v224.6c0,9.2-4.3,17.7-11.5,22.9c-7.2,5.1-16.4,6.2-24.5,2.8
						c-112.4-47.5-237.4-77.1-371.7-87.9c-107.8-8.7-221.8-5.4-338.8,9.9c-199.2,25.9-338.9,78-340.3,78.5
						C610.6,864.4,607.6,864.9,604.7,864.9z M630.9,628.6v170.7c54.6-17.5,168.9-50.1,316.5-69.3c120.4-15.7,237.9-19.1,349.2-10.1
						c125.5,10.1,243.5,36.1,351.3,77.3V628.6c-14.3-8.4-40.4-22.9-76.2-39.3c-51.4-23.7-133.8-56.4-234.4-77.7
						c-112.6-23.9-224.6-28.9-332.9-15.1C874,513.2,748.4,557.6,630.9,628.6z"/>
				</g>
			</g>
			<g>
				<path class="st16" d="M604.7,612.7v224.6c0,0,565.9-213,1069.4,0V612.7C1674,612.7,1151.5,271.9,604.7,612.7z"/>
			</g>
			<g>
				<path class="st13" d="M639.7,698.2c-2.9,0-5.7-0.8-8.3-2.5c-4.7-3.1-7.5-8.3-7.5-14.2v-64.9c0-1.1,0.5-2,1.4-2.6
					c0.3-0.2,33.8-22.9,93.4-44.2c3-1.1,6.2-0.7,8.9,1c2.7,1.7,4.5,4.5,5,7.8c0.9,5.5-2.2,10.8-7.2,12.5l-19.1,6.6
					c-1.6,0.5-3.2-0.4-3.7-2c-0.5-1.6,0.3-3.4,1.9-3.9l19.1-6.6c2.2-0.8,3.6-3.1,3.2-5.6c-0.2-1.4-1-2.7-2.2-3.5
					c-1.2-0.8-2.6-0.9-4-0.4c-52.2,18.7-84,38.3-90.7,42.6v63.2c0,3.6,1.7,6.9,4.7,8.8c2.9,1.9,6.5,2.1,9.6,0.4
					c3.8-2,5.9-6.3,5.3-10.7l-3.2-25.1c-0.2-1.7,0.9-3.3,2.5-3.5c1.6-0.2,3.1,1,3.3,2.7l3.2,25.1c0.9,7-2.5,13.9-8.6,17.1
					C644.6,697.6,642.1,698.2,639.7,698.2z"/>
			</g>
			<g>
				<path class="st13" d="M630.9,811.5c-0.6,0-1.2-0.2-1.7-0.6c-0.8-0.6-1.3-1.5-1.3-2.6v-64.9c0-5.8,2.8-11.1,7.5-14.2
					c4.7-3.1,10.4-3.3,15.4-0.7c6,3.2,9.5,10.1,8.6,17.1l-3.2,25.1c-0.2,1.7-1.7,2.9-3.3,2.7c-1.6-0.2-2.8-1.8-2.5-3.5l3.2-25.1
					c0.6-4.4-1.6-8.7-5.3-10.7c-3.1-1.6-6.7-1.5-9.6,0.4c-2.9,1.9-4.7,5.2-4.7,8.8V804c13.3-4.7,58.8-19.8,114.7-28.7l0.2,0
					c5.3-0.9,7-1.5,7.4-3.7c0.4-2.3-0.8-4.4-2.7-5.4l-23.3,2.1c-1.6,0.1-3.1-1.1-3.2-2.9s1.1-3.2,2.7-3.4l24-2.1
					c0.4,0,0.8,0,1.2,0.1c5,1.7,8.1,7,7.2,12.5c-1.1,7.1-7.6,8.1-12.3,8.9l-0.2,0c-65.8,10.6-117,29.7-117.5,29.9
					C631.6,811.4,631.2,811.5,630.9,811.5z"/>
			</g>
			<g>
				<path class="st13" d="M1635.6,697.5c-2.7,0-5.5-0.7-8-2c-5.9-3.3-9-9.8-7.7-16.2l4.6-22c0.4-1.7,1.9-2.8,3.5-2.4
					c1.6,0.4,2.6,2,2.3,3.7l-4.6,22c-0.8,3.6,1.1,7.4,4.7,9.3c3.3,1.8,7.4,1.8,10.5-0.1c2.6-1.5,4.1-4,4.3-6.8l3.4-55.6
					c-6.8-4.5-37.4-23.9-88.2-43.8c-1.5-0.6-3.1-0.5-4.5,0.3c-1.1,0.6-1.8,1.5-2,2.5c-0.5,1.9,0.7,3.8,2.8,4.6l18.7,7.1
					c1.5,0.6,2.3,2.4,1.8,4c-0.6,1.6-2.3,2.5-3.8,1.9l-18.7-7.1c-4.9-1.9-7.8-7.1-6.6-12.1c0.7-2.8,2.5-5.1,5-6.5
					c2.8-1.6,6.2-1.8,9.3-0.6c58.4,22.9,90.5,45.2,90.8,45.4c0.9,0.6,1.4,1.7,1.3,2.8l-3.5,57.4c-0.3,4.9-3,9.2-7.3,11.8
					C1641.3,696.8,1638.4,697.5,1635.6,697.5z"/>
			</g>
			<g>
				<path class="st13" d="M1637.4,798.3c-0.4,0-0.7-0.1-1.1-0.2c-0.5-0.2-50.6-20.6-115.8-34.4l-0.2,0c-4.9-1-11.1-2.3-11.9-8.9
					c-0.6-5.1,2.8-9.9,8-11.1c0.3-0.1,0.7-0.1,1.1,0l23.9,3.5c1.6,0.2,2.8,1.8,2.5,3.5c-0.2,1.7-1.7,2.9-3.3,2.7l-23.3-3.4
					c-1.9,0.6-3.1,2.3-2.9,4.1c0.2,1.8,2.3,2.5,7.1,3.6l0.2,0c55.4,11.7,100,28.2,113,33.2l3.2-53.2c0.2-2.8-1.1-5.4-3.4-7.3
					c-2.9-2.3-7-2.9-10.5-1.5c-3.8,1.5-6.1,4.9-5.8,8.6l1.9,22.4c0.1,1.7-1.1,3.2-2.7,3.4c-1.6,0.1-3.1-1.1-3.2-2.8l-1.9-22.4
					c-0.6-6.5,3.3-12.6,9.6-15c5.4-2.1,11.5-1.2,16.1,2.4c4,3.1,6.1,7.8,5.8,12.7l-3.5,57.4c-0.1,1-0.6,1.9-1.4,2.4
					C1638.5,798.1,1637.9,798.3,1637.4,798.3z"/>
			</g>
			<g>
				<path class="st13" d="M790.1,767.7c-1.2,0-2.4-0.8-2.8-2.1c-0.6-1.6,0.2-3.4,1.8-4c25.4-9.7,99.6-31.4,198.1-44.2
					c72.3-9.4,147.1-12.8,222.3-10.3c94,3.2,189,15.7,282.2,37.4c1.6,0.4,2.6,2,2.3,3.7c-0.4,1.7-1.9,2.8-3.5,2.4
					c-92.9-21.6-187.4-34.1-281-37.2c-74.9-2.5-149.4,0.9-221.3,10.2c-98.1,12.7-171.8,34.3-197,43.9
					C790.8,767.6,790.4,767.7,790.1,767.7z"/>
			</g>
			<g>
				<path class="st13" d="M1519.4,575.5c-0.4,0-0.8-0.1-1.1-0.2c-90.4-39.9-186.9-65-286.7-74.6c-79.9-7.7-162-5.5-244.2,6.5
					c-139.9,20.4-232.5,62.7-233.4,63.1c-1.5,0.7-3.3,0-3.9-1.6c-0.7-1.6,0-3.4,1.5-4.1c0.9-0.4,94.3-43,235-63.6
					c82.6-12,165.3-14.2,245.6-6.5c100.4,9.6,197.5,34.9,288.5,75.1c1.5,0.7,2.2,2.5,1.6,4.1
					C1521.7,574.8,1520.6,575.5,1519.4,575.5z"/>
			</g>
			<g>
				<path class="st15" d="M1008.7,556.5c-2.3-10.2-8.4-21.5-18.7-24.2c-10.9-2.8-21.4,4.8-28,13.2c-6.8,8.7-12.4,18.8-16.4,29.3
					c-4.8,12.5-6.1,25.8-6.7,39.2c-0.7,16,0,32,1.1,48c-0.5-1.5-1-3-1.5-4.5c-2.8-8.7-4.9-17.6-7.3-26.5c-1.4-5.2-2.9-11.5-5.6-16.6
					c0.1-0.5,0.1-1.1,0.2-1.6c0.5-6.4-8-7.3-10-1.9c-7.9,20.3-12.1,42.4-13.8,64.5c-1.3-3.7-2.5-7.5-3.5-11.4
					c-2.7-10.3-5.7-20.4-9.6-30.3c-7.2-18.3-18.7-34.6-30.1-50.2c-4.5-6.1-10.2-12.6-17.5-14.6c-7.7-2-14.7,1-20.6,6.2
					c-10.6,9.5-19.3,26.5-13.1,41.1c3.1,7.5,11.1,10.5,17.8,5.9c8-5.5,7.3-16.3,7.2-25.1c-0.1-3.1-4.3-3.3-4.5-0.2
					c-0.4,4.5-0.2,9.5-2,13.7c-1.6,3.8-6.8,8.9-10.2,4c-4.1-5.9-0.8-16.6,2.7-21.8c3.3-4.9,9.4-12.2,15.7-11.6
					c6,0.6,10.2,7.7,13.1,12.5c9.4,15.4,19.3,30.7,25.9,47.7c3.6,9.3,6,19,8.4,28.7c2.1,8.7,5.6,16.8,8.3,25.3
					c0,4.3,2.3,8.5,6.8,9.4c4.2,0.9,9-1.1,11-4.9c1.1-0.7,1.9-1.8,2-3.5c0.9-14.6,3.3-28.3,6.5-42.5c1.5-6.5,3.5-13,5.3-19.4
					c0.3,1.9,0.7,3.8,1,5.7c1.8,9.7,4.6,19.2,7.5,28.6c2.8,8.9,6,17.7,8.8,26.6c2,6.7,3.9,13.1,9.2,17.7c3.3,2.8,8.8,0.2,9.8-3.7
					c2.1-8.1-1.3-17.6-2.3-25.7c-1.3-10.7-1.9-21.6-2.5-32.4c-0.5-10.9-0.8-21.8-0.5-32.7c0.3-10.6,0.8-21.6,3.7-31.8
					c2.5-8.7,6.4-16.7,11.1-24.3c3.9-6.3,8.4-13.4,15.4-16.1c7.5-3,12.3,5.7,13.9,12.3c1.9,7.6,1.3,15.7-0.9,23.2
					c-2.2,7.5-6.2,15.8-12.5,20.4c-1,0.7-3.5,1.4-3.1,2.3c-0.8-1.2-0.4-3.8-0.2-4.9c0.9-4.1,4.4-7.8,6.9-11.1c2.5-3.2-1.2-8.9-5-7.5
					c-9.8,3.7-16.2,13.9-14.6,25.1c0.8,5.4,3.9,10.8,9.3,12c5.2,1.2,10.8-2,14.9-5.2C1006.4,600.8,1013.1,575.6,1008.7,556.5z"/>
				<path class="st15" d="M1428.3,652.3c-9.9,7.2-23.4,20-36.4,15.7c-5-1.7-8.4-4.8-10.5-8.8c4.9-5.4,9.1-11.5,12.3-16.6
					c5.6-8.7,10.8-18.8,12.9-29.1c1.1-5.3,1.8-11.2-0.9-16.1c-3-5.7-9.9-7.4-15.5-5.8c-7.2,2.1-12,10.4-15.7,16.7
					c-4.3,7.4-7,15.5-8.1,24.1c-1,7.3-1,15,0.4,22c-3.9,3.4-8.9,6.4-13,2.4c-4.1-4-2.8-13.3-2.5-18.4c0.9-13.1,13.7-54-12-49.7
					c-7.7,1.3-14.1,7-19.6,12.5c-1.5,1.5-2.9,3-4.2,4.6c0.1-0.7,0.2-1.3,0.2-2c0.6-6,2.6-14.5-1.5-19.7c-3.2-4.1-9.4-4-13.9-2.9
					c-8.5,2.1-15.9,8.5-21.3,16.1c0.9-3.1,1.6-6.2,2.1-9.4c0.6-3.6-3.4-5.5-5.3-2.9c-0.9-0.5-1.9-0.8-3.2-0.7
					c-4.2,0.4-8.4,3.7-12,5.8c-5.4,3.1-10.4,6.8-15.4,10.5c-1.6,1.2-3.3,2.4-4.9,3.6c0-3.8-0.5-7.5-2-10.6
					c-2.4-5.2-7.3-8.3-12.6-9.1c-8.2-1.2-17.7,2.2-24.7,7.4c-5.8-4.1-15.7,8.2-18.9,11.8c-4.8,5.3-8.9,11.7-12.1,18.5
					c-2.2,2.6-4.5,5.1-6.9,7.5c-9.5,9.6-19,20.2-30.3,27.6c-4.9,3.2-10.3,6.2-16.3,6.6c-5.2,0.3-12.8-1.3-15.1-6.8
					c-2.6-6.1,0.2-14,2-19.9c2.7-8.8,6.3-17.2,11-25c3.8-6.4,8.1-12.2,14.3-16.1c5.6-3.5,13.1-6.3,17,1c2.3,4.2,8.4,0.8,6.3-3.5
					c-7.4-15.6-25.1-8.5-35.1,0c-6.8,5.9-12.1,14.2-16.4,22.2c-4.9,9-9.3,19.2-11.3,29.4c-0.2,0.9-0.3,1.8-0.4,2.7
					c-0.6,0.3-1.2,0.7-1.7,1.3c-3.5,3.6-7,7.2-10.7,10.7c-3.8,3.6-8.7,7.7-12.8,9.1c-1.8,0.6-0.1,0-1.8,0.3c-0.1,0-0.1,0.1-0.2-0.2
					c-0.1-0.1-0.5-0.7-1-1.7c-0.7-1.6-0.9-3.3-1.1-5.1c-0.3-3.5-0.2-7.2,0-10.9c8.7-12.9,15.7-27.1,23.1-40.8
					c6.4-11.9,12.7-23.8,17.7-36.4c4.9-12.5,7.2-25.2,9.8-38.4c1.4-7.2,2.2-24.3-9.4-22.4c-2.2,0.3-3.5,1.8-5,3.2
					c-2,1.7-4.2,3.1-6.1,5c-3.9,3.9-6.2,8.9-8.7,13.8c-6.2,12-12.1,24-17.2,36.6c-5,12.4-10.4,24.8-13.8,37.8
					c-3.5,13.6-4.9,28.1-5.8,42.1c-8,10.5-17.7,20-29.5,23.6c-5.9,1.8-11.1,0.8-12.9-4.4c3.9-4.3,7.7-8.6,11-13.4
					c6.9-10,11.9-20.7,16.4-32c2.7-6.8,5.5-17.6-3.1-21.1c-8.6-3.6-16,7-20.4,13.3c-6.8,9.7-10.2,21.1-12.3,32.8c-1.2,6.8-3,14-2,21
					c-3.3,4-6.6,8-9.8,12.1c-2.3,2.9,2.4,7.1,4.8,4.2c2.4-3,5-5.8,7.6-8.6c4.2,6.9,12.5,9.3,20.3,8.2c10.8-1.5,20.9-9.1,28.8-16.5
					c0.6-0.5,1.1-1.1,1.6-1.6c1.5,7,4.9,13.3,11.7,15.8c13.4,4.9,26.2-7.4,35.5-18.2c0.6,1,1.3,1.9,2.1,2.8
					c5.7,6.5,14.9,9.7,23.2,9.3c17.4-0.8,31.4-13.3,43.6-25.2c0.6-0.6,1.2-1.2,1.9-1.8c0.2,3.8,1.2,7.4,3.5,10.6
					c4.1,5.9,10.8,8.7,17.6,9.4c13.9,1.4,27.6-4.1,37.2-14.7c9-9.8,14.9-22.7,17.5-36c5.3-3.5,10.4-7.3,15.4-11.1
					c3.4-2.6,6.8-5.3,10.1-8c2.1-1.6,4.1-3.3,6.2-4.9c0.2-0.1,0.4-0.3,0.5-0.5c-3.1,7.1-6.5,14.1-9.4,21.3
					c-4.4,10.7-10.5,21.8-11.2,33.6c-0.4,6,6.3,8.2,10.3,5c4.6-3.7,7.3-9.1,10.2-14.4c3.3-6,6.4-12.2,9.3-18.5
					c2.4-5.3,4.3-10.9,7.1-16c2.6-4.8,6.5-8.7,10.8-11.9c1.9-1.4,4-2.8,6.3-3.1c0.1,0,0.5,0,1,0c0,0.6,0,1.2-0.1,1.8
					c-0.6,6.7-1.6,13.2-3.6,19.6c-1.8,5.7-4,11.4-5,17.4c-0.6,3.2-0.5,6.6-1.4,9.8c-0.8,3.1-1.4,5.4-0.9,8.7c0.4,3,3.4,5.1,6,5.3
					c5.2,0.3,7.9-5.1,9.8-9.3c2.4-5.2,4.4-10.4,6.3-15.8c2-5.7,5-11,8.9-15.5c2.7-3.1,5.7-6.3,9-8.9c1.6-1.3,3.3-2.5,5.2-3.3
					c0.6-0.2,2-0.4,2.7-0.6c0.1,0.4,0.3,1,0.4,1.5c0.3,2.1,0.1,4.8-0.1,7.1c-0.5,5-1.6,10-2.4,15c-2.4,14.8-5.5,39,11.9,45.2
					c7.1,2.5,13.8,0.6,19.8-3.3c3,5,7.3,9.2,13.2,12c19.2,9.2,36.2-4.7,50.4-17C1440.6,658.2,1434.1,648.1,1428.3,652.3z
					 M1003.8,646.1c2.1-10.5,6.1-19.9,12.7-28.1c1.4-1.7,5.7-7.7,6.4-3.6c0.5,2.9-2.4,7.6-3.5,10.2c-4.5,10.5-8.9,20.9-15.3,30.3
					c-0.8,1.2-1.7,2.4-2.5,3.6C1002.1,654.3,1003,650.1,1003.8,646.1z M1090.6,540.1c1.6-3.7,3.1-7.9,5.8-11
					c1.3-1.5,2.8-2.7,4.3-3.9c0.2-0.1,0.4-0.3,0.6-0.5c0,0.4,0.1,0.8,0.1,1.3c0.3,4.2-1.6,8.9-2.5,12.9c-1.2,5.4-2.3,10.8-3.9,16
					c-3.1,10.1-7.6,19.7-12.3,29.1c-6.3,12.6-12.7,25.4-19.6,37.8c3.2-18.2,9.3-35.4,15.7-52.8
					C1082.4,559.2,1086.4,549.7,1090.6,540.1z M1213.9,599.7c2.8-1.1,6.3-2.2,9.3-1.7c3.6,0.6,3.3,3,3.1,6.5
					c-0.1,3.3-0.4,6.6-0.9,9.9c-1.3,0.8-2.6,1.5-4,2.2c-3.5,1.8-7.4,3.6-11.4,3.5c-3.3-0.1-8.6-2.1-9.1-6.2
					C1200.1,607.1,1208.9,601.7,1213.9,599.7z M1219.4,634.9c-4.3,9-11,17.4-20.1,21.1c-6,2.4-21.3,5-23.8-3.8
					c-1.3-4.4,0.4-10.5,1.5-14.8c2.1-2.3,4.1-4.7,6.1-7.2c2.6-3.2,5-6.5,7.3-9.9c1,2.4,2.6,4.7,4.8,6.7c7.8,7.1,17.1,6.9,26,3.9
					C1220.6,632.3,1220.1,633.6,1219.4,634.9z M1341.9,601.7C1341.9,601.5,1341.9,601.5,1341.9,601.7L1341.9,601.7z M1378.3,635.5
					c0.6-7.2,2.8-14.1,6.3-20.3c1.7-3,3.7-6.3,5.9-9c1.5-1.9,2.5-1.8,4.1-1.9c0.1,0.2,0.1,0.3,0.1,0.2c0.1,1.8-0.2,3.6-0.7,5.3
					c-1.1,4.4-2.7,8.7-4.6,12.8c-3.1,6.9-7,13.5-11.5,19.5C1378,640,1378.1,637.7,1378.3,635.5z"/>
				<path class="st15" d="M1461.2,626.5c-1.5-2.1-4.7-3.4-7.1-1.8c-2.6,1.9-5.2,3.6-7.6,5.8c-2.3,2.2-4.5,4.6-6.4,7.2
					c-1.8,2.4-0.9,6.3,1.2,8.1c2,1.7,5.8,2.2,7.7-0.2c1.7-2.1,3.6-3.9,5.7-5.7c2.1-1.8,3.9-3.6,5.6-5.8
					C1462.2,631.9,1462.9,629,1461.2,626.5z"/>
			</g>
			<g>
				<path class="st13" d="M1008.7,550.2c-2.3-10.2-8.4-21.5-18.7-24.2c-10.9-2.8-21.4,4.8-28,13.2c-6.8,8.7-12.4,18.8-16.4,29.3
					c-4.8,12.5-6.1,25.8-6.7,39.2c-0.7,16,0,32,1.1,48c-0.5-1.5-1-3-1.5-4.5c-2.8-8.7-4.9-17.6-7.3-26.5c-1.4-5.2-2.9-11.5-5.6-16.6
					c0.1-0.5,0.1-1.1,0.2-1.6c0.5-6.4-8-7.3-10-1.9c-7.9,20.3-12.1,42.4-13.8,64.5c-1.3-3.7-2.5-7.5-3.5-11.4
					c-2.7-10.3-5.7-20.4-9.6-30.3c-7.2-18.3-18.7-34.6-30.1-50.2c-4.5-6.1-10.2-12.6-17.5-14.6c-7.7-2-14.7,1-20.6,6.2
					c-10.6,9.5-19.3,26.5-13.1,41.1c3.1,7.5,11.1,10.5,17.8,5.9c8-5.5,7.3-16.3,7.2-25.1c-0.1-3.1-4.3-3.3-4.5-0.2
					c-0.4,4.5-0.2,9.5-2,13.7c-1.6,3.8-6.8,8.9-10.2,4c-4.1-5.9-0.8-16.6,2.7-21.8c3.3-4.9,9.4-12.2,15.7-11.6
					c6,0.6,10.2,7.7,13.1,12.5c9.4,15.4,19.3,30.7,25.9,47.7c3.6,9.3,6,19,8.4,28.7c2.1,8.7,5.6,16.8,8.3,25.3
					c0,4.3,2.3,8.5,6.8,9.4c4.2,0.9,9-1.1,11-4.9c1.1-0.7,1.9-1.8,2-3.5c0.9-14.6,3.3-28.3,6.5-42.5c1.5-6.5,3.5-13,5.3-19.4
					c0.3,1.9,0.7,3.8,1,5.7c1.8,9.7,4.6,19.2,7.5,28.6c2.8,8.9,6,17.7,8.8,26.6c2,6.7,3.9,13.1,9.2,17.7c3.3,2.8,8.8,0.2,9.8-3.7
					c2.1-8.1-1.3-17.6-2.3-25.7c-1.3-10.7-1.9-21.6-2.5-32.4c-0.5-10.9-0.8-21.8-0.5-32.7c0.3-10.6,0.8-21.6,3.7-31.8
					c2.5-8.7,6.4-16.7,11.1-24.3c3.9-6.3,8.4-13.4,15.4-16.1c7.5-3,12.3,5.7,13.9,12.3c1.9,7.6,1.3,15.7-0.9,23.2
					c-2.2,7.5-6.2,15.8-12.5,20.4c-1,0.7-3.5,1.4-3.1,2.3c-0.8-1.2-0.4-3.8-0.2-4.9c0.9-4.1,4.4-7.8,6.9-11.1c2.5-3.2-1.2-8.9-5-7.5
					c-9.8,3.7-16.2,13.9-14.6,25.1c0.8,5.4,3.9,10.8,9.3,12c5.2,1.2,10.8-2,14.9-5.2C1006.4,594.5,1013.1,569.4,1008.7,550.2z"/>
				<path class="st13" d="M1428.3,646.1c-9.9,7.2-23.4,20-36.4,15.7c-5-1.7-8.4-4.8-10.5-8.8c4.9-5.4,9.1-11.5,12.3-16.6
					c5.6-8.7,10.8-18.8,12.9-29.1c1.1-5.3,1.8-11.2-0.9-16.1c-3-5.7-9.9-7.4-15.5-5.8c-7.2,2.1-12,10.4-15.7,16.7
					c-4.3,7.4-7,15.5-8.1,24.1c-1,7.3-1,15,0.4,22c-3.9,3.4-8.9,6.4-13,2.4c-4.1-4-2.8-13.3-2.5-18.4c0.9-13.1,13.7-54-12-49.7
					c-7.7,1.3-14.1,7-19.6,12.5c-1.5,1.5-2.9,3-4.2,4.6c0.1-0.7,0.2-1.3,0.2-2c0.6-6,2.6-14.5-1.5-19.7c-3.2-4.1-9.4-4-13.9-2.9
					c-8.5,2.1-15.9,8.5-21.3,16.1c0.9-3.1,1.6-6.2,2.1-9.4c0.6-3.6-3.4-5.5-5.3-2.9c-0.9-0.5-1.9-0.8-3.2-0.7
					c-4.2,0.4-8.4,3.7-12,5.8c-5.4,3.1-10.4,6.8-15.4,10.5c-1.6,1.2-3.3,2.4-4.9,3.6c0-3.8-0.5-7.5-2-10.6
					c-2.4-5.2-7.3-8.3-12.6-9.1c-8.2-1.2-17.7,2.2-24.7,7.4c-5.8-4.1-15.7,8.2-18.9,11.8c-4.8,5.3-8.9,11.7-12.1,18.5
					c-2.2,2.6-4.5,5.1-6.9,7.5c-9.5,9.6-19,20.2-30.3,27.6c-4.9,3.2-10.3,6.2-16.3,6.6c-5.2,0.3-12.8-1.3-15.1-6.8
					c-2.6-6.1,0.2-14,2-19.9c2.7-8.8,6.3-17.2,11-25c3.8-6.4,8.1-12.2,14.3-16.1c5.6-3.5,13.1-6.3,17,1c2.3,4.2,8.4,0.8,6.3-3.5
					c-7.4-15.6-25.1-8.5-35.1,0c-6.8,5.9-12.1,14.2-16.4,22.2c-4.9,9-9.3,19.2-11.3,29.4c-0.2,0.9-0.3,1.8-0.4,2.7
					c-0.6,0.3-1.2,0.7-1.7,1.3c-3.5,3.6-7,7.2-10.7,10.7c-3.8,3.6-8.7,7.7-12.8,9.1c-1.8,0.6-0.1,0-1.8,0.3c-0.1,0-0.1,0.1-0.2-0.2
					c-0.1-0.1-0.5-0.7-1-1.7c-0.7-1.6-0.9-3.3-1.1-5.1c-0.3-3.5-0.2-7.2,0-10.9c8.7-12.9,15.7-27.1,23.1-40.8
					c6.4-11.9,12.7-23.8,17.7-36.4c4.9-12.5,7.2-25.2,9.8-38.4c1.4-7.2,2.2-24.3-9.4-22.4c-2.2,0.3-3.5,1.8-5,3.2
					c-2,1.7-4.2,3.1-6.1,5c-3.9,3.9-6.2,8.9-8.7,13.8c-6.2,12-12.1,24-17.2,36.6c-5,12.4-10.4,24.8-13.8,37.8
					c-3.5,13.6-4.9,28.1-5.8,42.1c-8,10.5-17.7,20-29.5,23.6c-5.9,1.8-11.1,0.8-12.9-4.4c3.9-4.3,7.7-8.6,11-13.4
					c6.9-10,11.9-20.7,16.4-32c2.7-6.8,5.5-17.6-3.1-21.1c-8.6-3.6-16,7-20.4,13.3c-6.8,9.7-10.2,21.1-12.3,32.8c-1.2,6.8-3,14-2,21
					c-3.3,4-6.6,8-9.8,12.1c-2.3,2.9,2.4,7.1,4.8,4.2c2.4-3,5-5.8,7.6-8.6c4.2,6.9,12.5,9.3,20.3,8.2c10.8-1.5,20.9-9.1,28.8-16.5
					c0.6-0.5,1.1-1.1,1.6-1.6c1.5,7,4.9,13.3,11.7,15.8c13.4,4.9,26.2-7.4,35.5-18.2c0.6,1,1.3,1.9,2.1,2.8
					c5.7,6.5,14.9,9.7,23.2,9.3c17.4-0.8,31.4-13.3,43.6-25.2c0.6-0.6,1.2-1.2,1.9-1.8c0.2,3.8,1.2,7.4,3.5,10.6
					c4.1,5.9,10.8,8.7,17.6,9.4c13.9,1.4,27.6-4.1,37.2-14.7c9-9.8,14.9-22.7,17.5-36c5.3-3.5,10.4-7.3,15.4-11.1
					c3.4-2.6,6.8-5.3,10.1-8c2.1-1.6,4.1-3.3,6.2-4.9c0.2-0.1,0.4-0.3,0.5-0.5c-3.1,7.1-6.5,14.1-9.4,21.3
					c-4.4,10.7-10.5,21.8-11.2,33.6c-0.4,6,6.3,8.2,10.3,5c4.6-3.7,7.3-9.1,10.2-14.4c3.3-6,6.4-12.2,9.3-18.5
					c2.4-5.3,4.3-10.9,7.1-16c2.6-4.8,6.5-8.7,10.8-11.9c1.9-1.4,4-2.8,6.3-3.1c0.1,0,0.5,0,1,0c0,0.6,0,1.2-0.1,1.8
					c-0.6,6.7-1.6,13.2-3.6,19.6c-1.8,5.7-4,11.4-5,17.4c-0.6,3.2-0.5,6.6-1.4,9.8c-0.8,3.1-1.4,5.4-0.9,8.7c0.4,3,3.4,5.1,6,5.3
					c5.2,0.3,7.9-5.1,9.8-9.3c2.4-5.2,4.4-10.4,6.3-15.8c2-5.7,5-11,8.9-15.5c2.7-3.1,5.7-6.3,9-8.9c1.6-1.3,3.3-2.5,5.2-3.3
					c0.6-0.2,2-0.4,2.7-0.6c0.1,0.4,0.3,1,0.4,1.5c0.3,2.1,0.1,4.8-0.1,7.1c-0.5,5-1.6,10-2.4,15c-2.4,14.8-5.5,39,11.9,45.2
					c7.1,2.5,13.8,0.6,19.8-3.3c3,5,7.3,9.2,13.2,12c19.2,9.2,36.2-4.7,50.4-17C1440.6,651.9,1434.1,641.9,1428.3,646.1z
					 M1003.8,639.9c2.1-10.5,6.1-19.9,12.7-28.1c1.4-1.7,5.7-7.7,6.4-3.6c0.5,2.9-2.4,7.6-3.5,10.2c-4.5,10.5-8.9,20.9-15.3,30.3
					c-0.8,1.2-1.7,2.4-2.5,3.6C1002.1,648.1,1003,643.8,1003.8,639.9z M1090.6,533.9c1.6-3.7,3.1-7.9,5.8-11
					c1.3-1.5,2.8-2.7,4.3-3.9c0.2-0.1,0.4-0.3,0.6-0.5c0,0.4,0.1,0.8,0.1,1.3c0.3,4.2-1.6,8.9-2.5,12.9c-1.2,5.4-2.3,10.8-3.9,16
					c-3.1,10.1-7.6,19.7-12.3,29.1c-6.3,12.6-12.7,25.4-19.6,37.8c3.2-18.2,9.3-35.4,15.7-52.8
					C1082.4,553,1086.4,543.5,1090.6,533.9z M1213.9,593.5c2.8-1.1,6.3-2.2,9.3-1.7c3.6,0.6,3.3,3,3.1,6.5c-0.1,3.3-0.4,6.6-0.9,9.9
					c-1.3,0.8-2.6,1.5-4,2.2c-3.5,1.8-7.4,3.6-11.4,3.5c-3.3-0.1-8.6-2.1-9.1-6.2C1200.1,600.8,1208.9,595.4,1213.9,593.5z
					 M1219.4,628.7c-4.3,9-11,17.4-20.1,21.1c-6,2.4-21.3,5-23.8-3.8c-1.3-4.4,0.4-10.5,1.5-14.8c2.1-2.3,4.1-4.7,6.1-7.2
					c2.6-3.2,5-6.5,7.3-9.9c1,2.4,2.6,4.7,4.8,6.7c7.8,7.1,17.1,6.9,26,3.9C1220.6,626.1,1220.1,627.4,1219.4,628.7z M1341.9,595.4
					C1341.9,595.3,1341.9,595.2,1341.9,595.4L1341.9,595.4z M1378.3,629.3c0.6-7.2,2.8-14.1,6.3-20.3c1.7-3,3.7-6.3,5.9-9
					c1.5-1.9,2.5-1.8,4.1-1.9c0.1,0.2,0.1,0.3,0.1,0.2c0.1,1.8-0.2,3.6-0.7,5.3c-1.1,4.4-2.7,8.7-4.6,12.8
					c-3.1,6.9-7,13.5-11.5,19.5C1378,633.7,1378.1,631.5,1378.3,629.3z"/>
				<path class="st13" d="M1461.2,620.3c-1.5-2.1-4.7-3.4-7.1-1.8c-2.6,1.9-5.2,3.6-7.6,5.8c-2.3,2.2-4.5,4.6-6.4,7.2
					c-1.8,2.4-0.9,6.3,1.2,8.1c2,1.7,5.8,2.2,7.7-0.2c1.7-2.1,3.6-3.9,5.7-5.7c2.1-1.8,3.9-3.6,5.6-5.8
					C1462.2,625.6,1462.9,622.8,1461.2,620.3z"/>
			</g>
		</g>
		<path class="st12" d="M2297.5,1684.7c-1.5,0-3,0-4.5,0c-8.5-0.1-18.1-0.2-28.7-0.3c-1.9,0-3.9,0-5.9-0.1c-2.2,0-4.5,0-6.9-0.1
			l-75.6-56.6c-2-1.5-6.9-2.6-11.6-2.7c-5.7-0.1-8.7,1.3-6.5,3.1l69.1,56c-1.3,0-2.6,0-4,0c-29.8-0.3-64.1-0.7-101-1.1
			c-1.6,0-3.2,0-4.8,0l-78.2-55.2c-2-1.4-6.9-2.6-11.5-2.7c-5.5-0.1-8.3,1.3-6,3l71.9,54.7c-0.5,0-1,0-1.6,0
			c-4.4,0-8.8-0.1-13.2-0.1c-2.9,0-5.9-0.1-8.8-0.1c-5.9-0.1-11.9-0.1-17.9-0.2c-7.5-0.1-15-0.1-22.6-0.2c-3,0-6-0.1-9.1-0.1
			c-4.5,0-9.1-0.1-13.7-0.1c-3,0-6.1-0.1-9.1-0.1c-3,0-6.1-0.1-9.1-0.1c-6.1-0.1-12.2-0.1-18.3-0.2c-6.1-0.1-12.2-0.1-18.3-0.2
			c-6.2-0.1-12.4-0.1-18.6-0.2l-81.5-53.5c-2.1-1.4-7-2.5-11.3-2.6c-5.2-0.1-7.7,1.3-5.3,2.9l75.5,53c-1.5,0-2.9,0-4.4,0
			c-9-0.1-18-0.2-27-0.2c-3,0-5.9-0.1-8.9-0.1c-1.5,0-3,0-4.4,0c-7.4-0.1-14.7-0.1-22-0.2c-4.4,0-8.7-0.1-13-0.1
			c-11.5-0.1-22.8-0.2-33.9-0.3c-2.8,0-5.5,0-8.3-0.1c-2.7,0-5.5,0-8.2-0.1c-5.4,0-10.8-0.1-16.1-0.1c-2.7,0-5.3,0-7.9-0.1
			c-1.3,0-2.6,0-3.9,0c-3.2,0-6.3,0-9.5-0.1l-95.5-51.5c-2.5-1.4-7.3-2.4-11.3-2.4c-4.8,0-6.5,1.4-3.6,3.1l88.9,50.6
			c-4.7,0-9.4-0.1-14-0.1c-1.2,0-2.4,0-3.6,0c-2.4,0-4.7,0-7,0c-3.5,0-6.9,0-10.3-0.1c-7.9,0-15.4-0.1-22.7-0.1c-3.1,0-6.2,0-9.2,0
			c-4,0-7.9,0-11.7-0.1c-1,0-1.9,0-2.8,0c-4.7,0-9.2,0-13.6-0.1c-4.3,0-8.5,0-12.5,0c-5.6,0-10.8,0-15.6,0c-1.4,0-2.7,0-4,0
			c-1.3,0-2.6,0-3.8,0c-1.2,0-2.5,0-3.7,0c-1.2,0-2.3,0-3.5,0c-1.7,0-3.3,0-4.8,0c-1,0-2,0-2.9,0c-0.5,0-0.9,0-1.4,0
			c-1.4,0-2.6,0-3.8,0c-1.6,0-3,0-4.3,0.1c-0.6,0-1.3,0-1.8,0c-1.4,0-2.6,0.1-3.6,0.1c-0.4,0-0.7,0-1,0c-1.2,0.1-1.7,0.1-1.6,0.2
			c0.5,0.3,1.1,0.6,1.9,0.9c0.5,0.2,1.1,0.5,1.7,0.7c1,0.4,2,0.8,3.2,1.3c0.8,0.3,1.6,0.6,2.4,0.9c4.5,1.7,9.7,3.6,13.7,5
			c4.1,1.4,7,2.5,7,2.5l0,0l34.2,0.3l121.5,1.1l66.4,37.8c-91.3-1.3-155.5-1.9-154.1-1.1c0.4,0.2,1,0.5,1.8,0.9
			c0.2,0.1,0.5,0.2,0.8,0.3c1.1,0.5,2.4,1,3.9,1.6c0.4,0.1,0.7,0.3,1.1,0.4c8.7,3.3,21,7.6,21,7.6l0,0l33.7,0.5l112.9,1.8l34.9,19.9
			c-95.9-1.8-164.7-2.8-163.2-2c0.4,0.2,1,0.5,1.7,0.8c0.2,0.1,0.5,0.2,0.8,0.3c1.1,0.5,2.4,1,3.8,1.5c0.4,0.1,0.7,0.3,1.1,0.4
			c8.4,3.2,20.4,7.3,20.4,7.3l0,0l44.8,0.9l110.9,2.2l11.2,6.4c5.5,3.1,19,5.3,27.1,4.3h0c5.7-0.7,6.9-2.7,2.8-4.9l-9.6-5.2
			l128.7,2.6l9.2,6.5c4.6,3.2,18.1,5.6,27.3,4.9l0,0c6.5-0.5,8.6-2.5,5.2-4.7l-9.1-6l141.8,2.9l8.7,6.6c4.3,3.3,18.1,5.7,27.9,5l0,0
			c6.9-0.5,9.4-2.5,6.2-4.8l-8.6-6.1l92.8,1.9l8.3,6.7c4.1,3.3,18.1,5.8,28.3,5.1l0,0c7.2-0.5,10.1-2.6,6.9-4.9l-8.2-6.2l53.7,1.1
			l-6.3-6.1l-5.2-5c0,0-14.1-0.3-38.4-0.8c-1.4,0-2.9-0.1-4.4-0.1c-0.7,0-1.5,0-2.3,0c-1.5,0-3.1-0.1-4.7-0.1
			c-2.4-0.1-4.9-0.1-7.5-0.2l-29.5-22.1l63.5,1l-6.6-6.4l-5.4-5.2c0,0-14.3-0.3-39.1-0.7c-1.4,0-2.9-0.1-4.5-0.1c-0.8,0-1.5,0-2.3,0
			c-1.6,0-3.1-0.1-4.8-0.1c-5.2-0.1-10.8-0.2-16.6-0.3l-55.1-41.3l79,0.7l-7.1-6.8l-5.8-5.6
			C2334.5,1685.1,2321,1684.9,2297.5,1684.7z M2206.3,1768.3c-0.3,0-0.6,0-1,0c-4-0.1-8.1-0.2-12.2-0.3c-2.7-0.1-5.4-0.1-8.2-0.2
			c-2.7-0.1-5.5-0.1-8.2-0.2c-5.5-0.1-11-0.2-16.6-0.3c-1.4,0-2.8-0.1-4.2-0.1c-2.8-0.1-5.6-0.1-8.4-0.2c-1.4,0-2.8-0.1-4.2-0.1
			c-4.2-0.1-8.4-0.2-12.7-0.3c-1.4,0-2.8-0.1-4.2-0.1c-2.8-0.1-5.7-0.1-8.5-0.2c-1.4,0-2.8-0.1-4.2-0.1c-2.8-0.1-5.7-0.1-8.5-0.2
			c-1.4,0-2.8-0.1-4.3-0.1c-4.3-0.1-8.5-0.2-12.8-0.3c-4.3-0.1-8.5-0.2-12.8-0.3c-4.5-0.1-9-0.2-13.5-0.3l-31.3-20.5l147.9,2.4
			L2206.3,1768.3z M2162.7,1735.2c-2.9,0-5.9-0.1-8.9-0.2c-2.8,0-5.5-0.1-8.3-0.1c-2.8,0-5.6-0.1-8.4-0.1
			c-5.6-0.1-11.2-0.2-16.9-0.3c-1.4,0-2.8,0-4.3-0.1c-2.8,0-5.7-0.1-8.5-0.1c-1.4,0-2.9,0-4.3-0.1c-4.3-0.1-8.6-0.1-12.9-0.2
			c-1.4,0-2.9,0-4.3-0.1c-2.9,0-5.7-0.1-8.6-0.1c-1.4,0-2.9,0-4.3-0.1c-2.9,0-5.8-0.1-8.6-0.1c-1.4,0-2.9,0-4.3-0.1
			c-4.3-0.1-8.7-0.1-13-0.2c-4.3-0.1-8.7-0.1-13-0.2c-7.3-0.1-14.7-0.2-22-0.4l-59.3-38.9l157.4,1.5L2162.7,1735.2z M1929,1693.6
			l55.2,38.7c-4.8-0.1-9.7-0.2-14.5-0.2c-4.2-0.1-8.5-0.1-12.7-0.2c-29.4-0.5-58.2-0.9-85.5-1.3c-3.9-0.1-7.7-0.1-11.6-0.2
			c-7.7-0.1-15.2-0.2-22.7-0.3l-70.4-37.9L1929,1693.6z M2001.4,1744.4l29,20.3c-6.2-0.1-12.4-0.2-18.5-0.4
			c-4.2-0.1-8.4-0.2-12.5-0.3c-29-0.6-57.3-1.1-84.2-1.7c-3.8-0.1-7.6-0.1-11.4-0.2c-2.4,0-4.8-0.1-7.1-0.1l-37.1-20L2001.4,1744.4z
			 M2334.4,1771.1c-6.9-0.1-14-0.3-21.5-0.5c-2.2,0-4.4-0.1-6.7-0.1c-1.1,0-2.3,0-3.4-0.1c-5.7-0.1-11.5-0.2-17.4-0.4
			c-2.4-0.1-4.8-0.1-7.2-0.2c-2.4-0.1-4.8-0.1-7.3-0.2c-1.2,0-2.5-0.1-3.7-0.1c-2.5-0.1-4.9-0.1-7.4-0.2c-6.7-0.1-13.6-0.3-20.6-0.4
			l-30.3-21.4l98.4,1.6L2334.4,1771.1z M2293,1737.5c-5.6-0.1-11.3-0.2-17.2-0.3c-2.2,0-4.5-0.1-6.8-0.1c-1.1,0-2.3,0-3.4-0.1
			c-5.8-0.1-11.7-0.2-17.7-0.3c-2.4,0-4.8-0.1-7.3-0.1c-2.5,0-4.9-0.1-7.4-0.1c-1.2,0-2.5,0-3.7-0.1c-2.5,0-5-0.1-7.6-0.1
			c-9.6-0.2-19.5-0.3-29.6-0.5l-56.9-40.2l107.2,1L2293,1737.5z"/>
		<path class="st12" d="M-74.4,1685.1l-5.8,5.6l-7.1,6.8l79-0.7l-55.1,41.3c-5.9,0.1-11.4,0.2-16.6,0.3c-1.6,0-3.2,0.1-4.8,0.1
			c-0.8,0-1.5,0-2.3,0c-1.5,0-3,0.1-4.5,0.1c-24.7,0.4-39.1,0.7-39.1,0.7l-5.4,5.2l-6.6,6.4l63.5-1l-29.5,22.1
			c-2.6,0.1-5.1,0.1-7.5,0.2c-1.6,0-3.2,0.1-4.7,0.1c-0.8,0-1.5,0-2.3,0c-1.5,0-3,0.1-4.4,0.1c-24.3,0.5-38.4,0.8-38.4,0.8l-5.2,5
			l-6.3,6.1l53.7-1.1l-8.2,6.2c-3.1,2.3-0.2,4.4,6.9,4.9l0,0c10.2,0.8,24.3-1.8,28.3-5.1l8.3-6.7l92.8-1.9l-8.6,6.1
			c-3.3,2.3-0.7,4.3,6.2,4.8l0,0c9.8,0.8,23.6-1.7,27.9-5l8.7-6.6l141.8-2.9l-9.1,6c-3.4,2.3-1.3,4.2,5.2,4.7l0,0
			c9.2,0.7,22.7-1.7,27.3-4.9l9.2-6.5l128.7-2.6l-9.6,5.2c-4.1,2.2-2.9,4.2,2.8,4.9h0c8.1,1,21.6-1.2,27.1-4.3l11.2-6.4l110.9-2.2
			l44.8-0.9l0,0c0,0,12-4.1,20.4-7.3c0.4-0.1,0.7-0.3,1.1-0.4c1.4-0.5,2.7-1.1,3.8-1.5c0.3-0.1,0.5-0.2,0.8-0.3
			c0.7-0.3,1.3-0.6,1.7-0.8c1.5-0.8-67.3,0.2-163.2,2l34.9-19.9l112.9-1.8l33.7-0.5l0,0c0,0,12.3-4.2,21-7.6
			c0.4-0.1,0.7-0.3,1.1-0.4c1.5-0.6,2.8-1.1,3.9-1.6c0.3-0.1,0.5-0.2,0.8-0.3c0.7-0.3,1.4-0.6,1.8-0.9c1.5-0.8-62.8-0.2-154.1,1.1
			l66.4-37.8l121.5-1.1l34.2-0.3l0,0c0,0,2.9-1,7-2.5c4.1-1.4,9.2-3.3,13.7-5c0.8-0.3,1.6-0.6,2.4-0.9c1.1-0.4,2.2-0.9,3.2-1.3
			c0.6-0.3,1.2-0.5,1.7-0.7c0.8-0.3,1.4-0.7,1.9-0.9c0.2-0.1-0.4-0.2-1.6-0.2c-0.3,0-0.6,0-1,0c-0.9,0-2.1-0.1-3.6-0.1
			c-0.6,0-1.2,0-1.8,0c-1.3,0-2.8,0-4.3-0.1c-1.2,0-2.5,0-3.8,0c-0.5,0-0.9,0-1.4,0c-0.9,0-1.9,0-2.9,0c-1.5,0-3.1,0-4.8,0
			c-1.1,0-2.3,0-3.5,0c-1.2,0-2.4,0-3.7,0c-1.3,0-2.5,0-3.8,0c-1.3,0-2.7,0-4,0c-4.8,0-10,0-15.6,0c-4,0-8.2,0-12.5,0
			c-4.4,0-8.9,0-13.6,0.1c-0.9,0-1.9,0-2.8,0c-3.8,0-7.7,0-11.7,0.1c-3,0-6.1,0-9.2,0c-7.3,0-14.9,0.1-22.7,0.1
			c-3.4,0-6.8,0-10.3,0.1c-2.3,0-4.6,0-7,0c-1.2,0-2.4,0-3.6,0c-4.6,0-9.2,0.1-14,0.1l88.9-50.6c2.9-1.6,1.2-3.1-3.6-3.1
			c-4,0-8.8,1-11.3,2.4l-95.5,51.5c-3.1,0-6.3,0-9.5,0.1c-1.3,0-2.6,0-3.9,0c-2.6,0-5.3,0-7.9,0.1c-5.3,0-10.7,0.1-16.1,0.1
			c-2.7,0-5.5,0-8.2,0.1c-2.7,0-5.5,0-8.3,0.1c-11.1,0.1-22.4,0.2-33.9,0.3c-4.3,0-8.7,0.1-13,0.1c-7.3,0.1-14.6,0.1-22,0.2
			c-1.5,0-3,0-4.4,0c-3,0-5.9,0.1-8.9,0.1c-8.9,0.1-17.9,0.2-27,0.2c-1.5,0-2.9,0-4.4,0l75.5-53c2.4-1.7,0-3.1-5.3-2.9
			c-4.3,0.1-9.2,1.2-11.3,2.6l-81.5,53.5c-6.2,0.1-12.4,0.1-18.6,0.2c-6.1,0.1-12.2,0.1-18.3,0.2c-6.1,0.1-12.2,0.1-18.3,0.2
			c-3.1,0-6.1,0.1-9.1,0.1c-3,0-6.1,0.1-9.1,0.1c-4.6,0-9.1,0.1-13.7,0.1c-3,0-6.1,0.1-9.1,0.1c-7.6,0.1-15.1,0.1-22.6,0.2
			c-6,0.1-11.9,0.1-17.9,0.2c-3,0-5.9,0.1-8.8,0.1c-4.4,0-8.8,0.1-13.2,0.1c-0.5,0-1,0-1.6,0l71.9-54.7c2.3-1.7-0.5-3.1-6-3
			c-4.6,0.1-9.5,1.2-11.5,2.7l-78.2,55.2c-1.6,0-3.2,0-4.8,0c-36.9,0.4-71.1,0.7-101,1.1c-1.3,0-2.6,0-4,0l69.1-56
			c2.2-1.8-0.9-3.2-6.5-3.1c-4.7,0.1-9.7,1.3-11.6,2.7l-75.6,56.6c-2.3,0-4.6,0-6.9,0.1c-2,0-3.9,0-5.9,0.1
			c-10.6,0.1-20.2,0.2-28.7,0.3c-1.5,0-3,0-4.5,0C-60.9,1684.9-74.4,1685.1-74.4,1685.1z M81.7,1747.2l147.9-2.4l-31.3,20.5
			c-4.5,0.1-9,0.2-13.5,0.3c-4.3,0.1-8.5,0.2-12.8,0.3c-4.3,0.1-8.5,0.2-12.8,0.3c-1.4,0-2.8,0.1-4.3,0.1c-2.8,0.1-5.7,0.1-8.5,0.2
			c-1.4,0-2.8,0.1-4.2,0.1c-2.8,0.1-5.7,0.1-8.5,0.2c-1.4,0-2.8,0.1-4.2,0.1c-4.2,0.1-8.5,0.2-12.7,0.3c-1.4,0-2.8,0.1-4.2,0.1
			c-2.8,0.1-5.6,0.1-8.4,0.2c-1.4,0-2.8,0.1-4.2,0.1c-5.6,0.1-11.1,0.2-16.6,0.3c-2.8,0.1-5.5,0.1-8.2,0.2c-2.7,0.1-5.5,0.1-8.2,0.2
			c-4.1,0.1-8.1,0.2-12.2,0.3c-0.3,0-0.6,0-1,0L81.7,1747.2z M149.9,1695.3l157.4-1.5l-59.3,38.9c-7.3,0.1-14.6,0.2-22,0.4
			c-4.3,0.1-8.7,0.1-13,0.2c-4.3,0.1-8.7,0.1-13,0.2c-1.4,0-2.9,0-4.3,0.1c-2.9,0-5.8,0.1-8.6,0.1c-1.4,0-2.9,0-4.3,0.1
			c-2.9,0-5.8,0.1-8.6,0.1c-1.4,0-2.9,0-4.3,0.1c-4.3,0.1-8.6,0.1-12.9,0.2c-1.4,0-2.9,0-4.3,0.1c-2.9,0-5.7,0.1-8.5,0.1
			c-1.4,0-2.8,0-4.3,0.1c-5.7,0.1-11.3,0.2-16.9,0.3c-2.8,0-5.6,0.1-8.4,0.1c-2.8,0-5.6,0.1-8.3,0.1c-3,0.1-5.9,0.1-8.9,0.2
			L149.9,1695.3z M493.3,1692.1L423,1730c-7.4,0.1-15,0.2-22.7,0.3c-3.8,0.1-7.7,0.1-11.6,0.2c-27.3,0.4-56.1,0.9-85.5,1.3
			c-4.2,0.1-8.5,0.1-12.7,0.2c-4.8,0.1-9.7,0.2-14.5,0.2l55.2-38.7L493.3,1692.1z M400.6,1742.1l-37.1,20c-2.4,0-4.7,0.1-7.1,0.1
			c-3.8,0.1-7.6,0.1-11.4,0.2c-26.9,0.5-55.2,1.1-84.2,1.7c-4.2,0.1-8.3,0.2-12.5,0.3c-6.1,0.1-12.3,0.2-18.5,0.4l29-20.3
			L400.6,1742.1z M-47.4,1749.2l98.4-1.6L20.8,1769c-7,0.1-13.9,0.3-20.6,0.4c-2.5,0.1-5,0.1-7.4,0.2c-1.2,0-2.5,0.1-3.7,0.1
			c-2.4,0.1-4.9,0.1-7.3,0.2c-2.4,0.1-4.8,0.1-7.2,0.2c-5.9,0.1-11.7,0.3-17.4,0.4c-1.1,0-2.3,0-3.4,0.1c-2.2,0-4.5,0.1-6.7,0.1
			c-7.4,0.2-14.6,0.3-21.5,0.5L-47.4,1749.2z M17.7,1696.5l107.2-1L68,1735.7c-10.1,0.2-20,0.3-29.6,0.5c-2.5,0-5.1,0.1-7.6,0.1
			c-1.3,0-2.5,0-3.7,0.1c-2.5,0-5,0.1-7.4,0.1c-2.5,0-4.9,0.1-7.3,0.1c-6,0.1-11.9,0.2-17.7,0.3c-1.2,0-2.3,0-3.4,0.1
			c-2.3,0-4.6,0.1-6.8,0.1c-5.9,0.1-11.6,0.2-17.2,0.3L17.7,1696.5z"/>
	</g>
	<path class="st17" d="M-59.5,1312.5c636.4,56.2,1281.8-131.6,1824.1-469.6c299-186.4,571.3-418,890.1-568.1"/>
</g>
</svg>
